<?xml version="1.0" encoding="UTF-8" standalone="no"?>
<svg width="196.85mm" height="158.75mm"
 viewBox="0 0 558 450"
 xmlns="http://www.w3.org/2000/svg" xmlns:xlink="http://www.w3.org/1999/xlink"  version="1.2" baseProfile="tiny">
<title>Qt SVG Document</title>
<desc>MATLAB, The MathWorks, Inc. Version 25.2.0.2998904 R2025b</desc>
<defs>
</defs>
<g fill="none" stroke="black" stroke-width="1" fill-rule="evenodd" stroke-linecap="square" stroke-linejoin="bevel" >

<g fill="#ffffff" fill-opacity="1" stroke="none" transform="matrix(0.75,0,0,0.749162,-52.5,-17.229)"
font-family="MS Shell Dlg 2" font-size="8.25" font-weight="400" font-style="normal" 
>
<path vector-effect="none" fill-rule="evenodd" d="M69,22 L814,22 L814,624 L69,624 L69,22"/>
</g>

<g fill="#ffffff" fill-opacity="1" stroke="none" transform="matrix(7.5e-05,0,0,7.49162e-05,-52.5,-17.229)"
font-family="MS Shell Dlg 2" font-size="8.25" font-weight="400" font-style="normal" 
>
<path vector-effect="none" fill-rule="evenodd" d="M1.16e+06,490000 L1.16e+06,5.84e+06 L8.06e+06,5.84e+06 L8.06e+06,490000 L1.16e+06,490000"/>
</g>

<g fill="#212121" fill-opacity="0.14902" stroke="#212121" stroke-opacity="0.14902" stroke-width="0.666667" stroke-linecap="butt" stroke-linejoin="round" transform="matrix(0.75,0,0,0.749162,-52.5,-17.229)"
font-family="MS Shell Dlg 2" font-size="8.25" font-weight="400" font-style="normal" 
>
<polyline fill="none" vector-effect="none" points="182.78,49.0001 182.78,584 " />
<polyline fill="none" vector-effect="none" points="319.376,49.0001 319.376,584 " />
<polyline fill="none" vector-effect="none" points="455.973,49.0001 455.973,584 " />
<polyline fill="none" vector-effect="none" points="592.569,49.0001 592.569,584 " />
<polyline fill="none" vector-effect="none" points="729.165,49.0001 729.165,584 " />
<polyline fill="none" vector-effect="none" points="116,508.004 806,508.004 " />
<polyline fill="none" vector-effect="none" points="116,427.941 806,427.941 " />
<polyline fill="none" vector-effect="none" points="116,347.877 806,347.877 " />
<polyline fill="none" vector-effect="none" points="116,267.814 806,267.814 " />
<polyline fill="none" vector-effect="none" points="116,187.75 806,187.75 " />
<polyline fill="none" vector-effect="none" points="116,107.687 806,107.687 " />
</g>

<g fill="#212121" fill-opacity="1" stroke="#212121" stroke-opacity="1" stroke-width="0.666667" stroke-linecap="square" stroke-linejoin="round" transform="matrix(0.75,0,0,0.749162,-52.5,-17.229)"
font-family="MS Shell Dlg 2" font-size="8.25" font-weight="400" font-style="normal" 
>
<polyline fill="none" vector-effect="none" points="116,584 806,584 " />
<polyline fill="none" vector-effect="none" points="116,49.0001 806,49.0001 " />
<polyline fill="none" vector-effect="none" points="182.78,584 182.78,577.1 " />
<polyline fill="none" vector-effect="none" points="319.376,584 319.376,577.1 " />
<polyline fill="none" vector-effect="none" points="455.973,584 455.973,577.1 " />
<polyline fill="none" vector-effect="none" points="592.569,584 592.569,577.1 " />
<polyline fill="none" vector-effect="none" points="729.165,584 729.165,577.1 " />
<polyline fill="none" vector-effect="none" points="182.78,49.0001 182.78,55.9001 " />
<polyline fill="none" vector-effect="none" points="319.376,49.0001 319.376,55.9001 " />
<polyline fill="none" vector-effect="none" points="455.973,49.0001 455.973,55.9001 " />
<polyline fill="none" vector-effect="none" points="592.569,49.0001 592.569,55.9001 " />
<polyline fill="none" vector-effect="none" points="729.165,49.0001 729.165,55.9001 " />
</g>

<g fill="#212121" fill-opacity="1" stroke="#212121" stroke-opacity="1" stroke-width="1" stroke-linecap="square" stroke-linejoin="bevel" transform="matrix(0.75,0,0,0.749162,55.3352,433.267)"
font-family="Helvetica" font-size="13" font-weight="400" font-style="normal" 
>
<text fill="#212121" fill-opacity="1" stroke="none" xml:space="preserve" x="0" y="0" font-family="Helvetica" font-size="13" font-weight="400" font-style="normal" 
 >Jan 11, 18:00</text>
</g>

<g fill="#212121" fill-opacity="1" stroke="#212121" stroke-opacity="1" stroke-width="1" stroke-linecap="square" stroke-linejoin="bevel" transform="matrix(0.75,0,0,0.749162,157.782,433.267)"
font-family="Helvetica" font-size="13" font-weight="400" font-style="normal" 
>
<text fill="#212121" fill-opacity="1" stroke="none" xml:space="preserve" x="0" y="0" font-family="Helvetica" font-size="13" font-weight="400" font-style="normal" 
 >Jan 11, 20:00</text>
</g>

<g fill="#212121" fill-opacity="1" stroke="#212121" stroke-opacity="1" stroke-width="1" stroke-linecap="square" stroke-linejoin="bevel" transform="matrix(0.75,0,0,0.749162,260.229,433.267)"
font-family="Helvetica" font-size="13" font-weight="400" font-style="normal" 
>
<text fill="#212121" fill-opacity="1" stroke="none" xml:space="preserve" x="0" y="0" font-family="Helvetica" font-size="13" font-weight="400" font-style="normal" 
 >Jan 11, 22:00</text>
</g>

<g fill="#212121" fill-opacity="1" stroke="#212121" stroke-opacity="1" stroke-width="1" stroke-linecap="square" stroke-linejoin="bevel" transform="matrix(0.75,0,0,0.749162,362.301,433.267)"
font-family="Helvetica" font-size="13" font-weight="400" font-style="normal" 
>
<text fill="#212121" fill-opacity="1" stroke="none" xml:space="preserve" x="0" y="0" font-family="Helvetica" font-size="13" font-weight="400" font-style="normal" 
 >Jan 12, 00:00</text>
</g>

<g fill="#212121" fill-opacity="1" stroke="#212121" stroke-opacity="1" stroke-width="1" stroke-linecap="square" stroke-linejoin="bevel" transform="matrix(0.75,0,0,0.749162,464.749,433.267)"
font-family="Helvetica" font-size="13" font-weight="400" font-style="normal" 
>
<text fill="#212121" fill-opacity="1" stroke="none" xml:space="preserve" x="0" y="0" font-family="Helvetica" font-size="13" font-weight="400" font-style="normal" 
 >Jan 12, 02:00</text>
</g>

<g fill="#212121" fill-opacity="1" stroke="#212121" stroke-opacity="1" stroke-width="1" stroke-linecap="square" stroke-linejoin="bevel" transform="matrix(0.75,0,0,0.749162,229.5,446.253)"
font-family="Helvetica" font-size="14" font-weight="400" font-style="normal" 
>
<text fill="#212121" fill-opacity="1" stroke="none" xml:space="preserve" x="0" y="0" font-family="Helvetica" font-size="14" font-weight="400" font-style="normal" 
 >Simulation Time (datetime)</text>
</g>

<g fill="#212121" fill-opacity="1" stroke="#212121" stroke-opacity="1" stroke-width="1" stroke-linecap="square" stroke-linejoin="bevel" transform="matrix(0.75,0,0,0.749162,522,445.503)"
font-family="Helvetica" font-size="13" font-weight="400" font-style="normal" 
>
<text fill="#212121" fill-opacity="1" stroke="none" xml:space="preserve" x="0" y="0" font-family="Helvetica" font-size="13" font-weight="400" font-style="normal" 
 >2020   </text>
</g>

<g fill="#212121" fill-opacity="1" stroke="#212121" stroke-opacity="1" stroke-width="1" stroke-linecap="square" stroke-linejoin="bevel" transform="matrix(0,-0.749162,0.75,0,9,244.228)"
font-family="Helvetica" font-size="14" font-weight="400" font-style="normal" 
>
<text fill="#212121" fill-opacity="1" stroke="none" xml:space="preserve" x="0" y="0" font-family="Helvetica" font-size="14" font-weight="400" font-style="normal" 
 >E</text>
</g>

<g fill="#212121" fill-opacity="1" stroke="#212121" stroke-opacity="1" stroke-width="1" stroke-linecap="square" stroke-linejoin="bevel" transform="matrix(0,-0.749162,0.75,0,14.25,237.486)"
font-family="Helvetica" font-size="11" font-weight="400" font-style="normal" 
>
<text fill="#212121" fill-opacity="1" stroke="none" xml:space="preserve" x="0" y="0" font-family="Helvetica" font-size="11" font-weight="400" font-style="normal" 
 >b</text>
</g>

<g fill="#212121" fill-opacity="1" stroke="#212121" stroke-opacity="1" stroke-width="1" stroke-linecap="square" stroke-linejoin="bevel" transform="matrix(0,-0.749162,0.75,0,9,232.991)"
font-family="Helvetica" font-size="14" font-weight="400" font-style="normal" 
>
<text fill="#212121" fill-opacity="1" stroke="none" xml:space="preserve" x="0" y="0" font-family="Helvetica" font-size="14" font-weight="400" font-style="normal" 
 >/N</text>
</g>

<g fill="#212121" fill-opacity="1" stroke="#212121" stroke-opacity="1" stroke-width="1" stroke-linecap="square" stroke-linejoin="bevel" transform="matrix(0,-0.749162,0.75,0,14.25,222.503)"
font-family="Helvetica" font-size="11" font-weight="400" font-style="normal" 
>
<text fill="#212121" fill-opacity="1" stroke="none" xml:space="preserve" x="0" y="0" font-family="Helvetica" font-size="11" font-weight="400" font-style="normal" 
 >o</text>
</g>

<g fill="#212121" fill-opacity="1" stroke="#212121" stroke-opacity="1" stroke-width="1" stroke-linecap="square" stroke-linejoin="bevel" transform="matrix(0,-0.749162,0.75,0,9,218.008)"
font-family="Helvetica" font-size="14" font-weight="400" font-style="normal" 
>
<text fill="#212121" fill-opacity="1" stroke="none" xml:space="preserve" x="0" y="0" font-family="Helvetica" font-size="14" font-weight="400" font-style="normal" 
 > [dB]</text>
</g>

<g fill="#212121" fill-opacity="1" stroke="#212121" stroke-opacity="1" stroke-width="0.666667" stroke-linecap="square" stroke-linejoin="round" transform="matrix(0.75,0,0,0.749162,-52.5,-17.229)"
font-family="Helvetica" font-size="14" font-weight="400" font-style="normal" 
>
<polyline fill="none" vector-effect="none" points="116,584 116,49.0001 " />
<polyline fill="none" vector-effect="none" points="806,584 806,49.0001 " />
<polyline fill="none" vector-effect="none" points="116,508.004 122.9,508.004 " />
<polyline fill="none" vector-effect="none" points="799.1,508.004 806,508.004 " />
<polyline fill="none" vector-effect="none" points="116,427.941 122.9,427.941 " />
<polyline fill="none" vector-effect="none" points="799.1,427.941 806,427.941 " />
<polyline fill="none" vector-effect="none" points="116,347.877 122.9,347.877 " />
<polyline fill="none" vector-effect="none" points="799.1,347.877 806,347.877 " />
<polyline fill="none" vector-effect="none" points="116,267.814 122.9,267.814 " />
<polyline fill="none" vector-effect="none" points="799.1,267.814 806,267.814 " />
<polyline fill="none" vector-effect="none" points="116,187.75 122.9,187.75 " />
<polyline fill="none" vector-effect="none" points="799.1,187.75 806,187.75 " />
<polyline fill="none" vector-effect="none" points="116,107.687 122.9,107.687 " />
<polyline fill="none" vector-effect="none" points="799.1,107.687 806,107.687 " />
</g>

<g fill="#212121" fill-opacity="1" stroke="#212121" stroke-opacity="1" stroke-width="1" stroke-linecap="square" stroke-linejoin="bevel" transform="matrix(0.75,0,0,0.749162,20,366.72)"
font-family="Helvetica" font-size="13" font-weight="400" font-style="normal" 
>
<text fill="#212121" fill-opacity="1" stroke="none" xml:space="preserve" x="0" y="0" font-family="Helvetica" font-size="13" font-weight="400" font-style="normal" 
 >40</text>
</g>

<g fill="#212121" fill-opacity="1" stroke="#212121" stroke-opacity="1" stroke-width="1" stroke-linecap="square" stroke-linejoin="bevel" transform="matrix(0.75,0,0,0.749162,20,306.739)"
font-family="Helvetica" font-size="13" font-weight="400" font-style="normal" 
>
<text fill="#212121" fill-opacity="1" stroke="none" xml:space="preserve" x="0" y="0" font-family="Helvetica" font-size="13" font-weight="400" font-style="normal" 
 >42</text>
</g>

<g fill="#212121" fill-opacity="1" stroke="#212121" stroke-opacity="1" stroke-width="1" stroke-linecap="square" stroke-linejoin="bevel" transform="matrix(0.75,0,0,0.749162,20,246.759)"
font-family="Helvetica" font-size="13" font-weight="400" font-style="normal" 
>
<text fill="#212121" fill-opacity="1" stroke="none" xml:space="preserve" x="0" y="0" font-family="Helvetica" font-size="13" font-weight="400" font-style="normal" 
 >44</text>
</g>

<g fill="#212121" fill-opacity="1" stroke="#212121" stroke-opacity="1" stroke-width="1" stroke-linecap="square" stroke-linejoin="bevel" transform="matrix(0.75,0,0,0.749162,20,186.778)"
font-family="Helvetica" font-size="13" font-weight="400" font-style="normal" 
>
<text fill="#212121" fill-opacity="1" stroke="none" xml:space="preserve" x="0" y="0" font-family="Helvetica" font-size="13" font-weight="400" font-style="normal" 
 >46</text>
</g>

<g fill="#212121" fill-opacity="1" stroke="#212121" stroke-opacity="1" stroke-width="1" stroke-linecap="square" stroke-linejoin="bevel" transform="matrix(0.75,0,0,0.749162,20,126.798)"
font-family="Helvetica" font-size="13" font-weight="400" font-style="normal" 
>
<text fill="#212121" fill-opacity="1" stroke="none" xml:space="preserve" x="0" y="0" font-family="Helvetica" font-size="13" font-weight="400" font-style="normal" 
 >48</text>
</g>

<g fill="#212121" fill-opacity="1" stroke="#212121" stroke-opacity="1" stroke-width="1" stroke-linecap="square" stroke-linejoin="bevel" transform="matrix(0.75,0,0,0.749162,20,66.8171)"
font-family="Helvetica" font-size="13" font-weight="400" font-style="normal" 
>
<text fill="#212121" fill-opacity="1" stroke="none" xml:space="preserve" x="0" y="0" font-family="Helvetica" font-size="13" font-weight="400" font-style="normal" 
 >50</text>
</g>

<g fill="#212121" fill-opacity="1" stroke="#212121" stroke-opacity="1" stroke-width="1" stroke-linecap="square" stroke-linejoin="bevel" transform="matrix(0.75,0,0,0.749162,240.75,9.74078)"
font-family="Helvetica" font-size="14" font-weight="700" font-style="normal" 
>
<text fill="#212121" fill-opacity="1" stroke="none" xml:space="preserve" x="0" y="0" font-family="Helvetica" font-size="14" font-weight="700" font-style="normal" 
 >E</text>
</g>

<g fill="#212121" fill-opacity="1" stroke="#212121" stroke-opacity="1" stroke-width="1" stroke-linecap="square" stroke-linejoin="bevel" transform="matrix(0.75,0,0,0.749162,248.25,14.9849)"
font-family="Helvetica" font-size="11" font-weight="700" font-style="normal" 
>
<text fill="#212121" fill-opacity="1" stroke="none" xml:space="preserve" x="0" y="0" font-family="Helvetica" font-size="11" font-weight="700" font-style="normal" 
 >b</text>
</g>

<g fill="#212121" fill-opacity="1" stroke="#212121" stroke-opacity="1" stroke-width="1" stroke-linecap="square" stroke-linejoin="bevel" transform="matrix(0.75,0,0,0.749162,252.75,9.74078)"
font-family="Helvetica" font-size="14" font-weight="700" font-style="normal" 
>
<text fill="#212121" fill-opacity="1" stroke="none" xml:space="preserve" x="0" y="0" font-family="Helvetica" font-size="14" font-weight="700" font-style="normal" 
 >/N</text>
</g>

<g fill="#212121" fill-opacity="1" stroke="#212121" stroke-opacity="1" stroke-width="1" stroke-linecap="square" stroke-linejoin="bevel" transform="matrix(0.75,0,0,0.749162,264.75,14.9849)"
font-family="Helvetica" font-size="11" font-weight="700" font-style="normal" 
>
<text fill="#212121" fill-opacity="1" stroke="none" xml:space="preserve" x="0" y="0" font-family="Helvetica" font-size="11" font-weight="700" font-style="normal" 
 >o</text>
</g>

<g fill="#212121" fill-opacity="1" stroke="#212121" stroke-opacity="1" stroke-width="1" stroke-linecap="square" stroke-linejoin="bevel" transform="matrix(0.75,0,0,0.749162,269.25,9.74078)"
font-family="Helvetica" font-size="14" font-weight="700" font-style="normal" 
>
<text fill="#212121" fill-opacity="1" stroke="none" xml:space="preserve" x="0" y="0" font-family="Helvetica" font-size="14" font-weight="700" font-style="normal" 
 > of both paths</text>
</g>

<g fill="none" stroke="#1171be" stroke-opacity="1" stroke-width="2" stroke-linecap="butt" stroke-linejoin="round" transform="matrix(0.75,0,0,0.749162,-52.5,-17.229)"
font-family="Helvetica" font-size="14" font-weight="700" font-style="normal" 
>
<polyline fill="none" vector-effect="none" points="116,534.63 116.19,531.872 116.379,529.351 116.569,527.077 116.759,525.063 116.949,523.317 117.138,521.849 117.328,520.665 117.518,519.772 117.707,519.174 117.897,518.876 118.087,518.877 118.277,519.18 118.466,519.78 118.656,520.677 118.846,521.865 119.035,523.339 119.225,525.09 " />
<polyline fill="none" vector-effect="none" points="224.897,499.349 225.087,489.547 225.277,479.533 225.467,469.303 225.656,458.856 225.846,448.192 226.036,437.312 226.225,426.219 226.415,414.921 226.605,403.426 226.795,391.749 226.984,379.91 227.174,367.932 227.364,355.85 227.554,343.705 227.743,331.551 227.933,319.452 228.123,307.488 228.312,295.754 228.502,284.363 228.692,273.444 228.881,263.143 229.071,253.621 229.261,245.049 229.451,237.601 229.64,231.446 229.83,226.738 230.02,223.601 230.21,222.125 230.399,222.353 230.589,224.278 230.779,227.845 230.968,232.953 231.158,239.47 231.348,247.236 231.538,256.08 231.727,265.827 231.917,276.31 232.107,287.372 232.296,298.869 232.486,310.677 232.676,322.689 232.866,334.813 233.055,346.974 233.245,359.111 233.435,371.172 233.624,383.12 233.814,394.922 234.004,406.556 234.194,418.003 234.383,429.252 234.573,440.292 234.763,451.119 234.952,461.729 235.142,472.122 235.332,482.298 235.522,492.26 235.711,502.009 235.901,511.55 236.091,520.887 236.28,530.024 236.47,538.967 236.66,547.719 236.85,556.287 " />
<polyline fill="none" vector-effect="none" points="343.091,110.48 343.281,100.994 343.47,94.5136 343.66,91.4018 343.85,91.8436 344.04,95.8121 344.229,103.073 344.419,113.23 344.609,125.788 344.798,140.221 344.988,156.031 345.178,172.773 345.368,190.078 345.557,207.653 345.747,225.27 345.937,242.761 346.126,260.005 346.316,276.916 346.506,293.439 346.696,309.539 346.885,325.196 347.075,340.402 347.265,355.158 347.454,369.47 347.644,383.347 347.834,396.802 348.024,409.849 348.213,422.504 348.403,434.782 348.593,446.698 348.782,458.268 348.972,469.507 349.162,480.43 349.352,491.05 349.541,501.381 349.731,511.436 349.921,521.226 350.111,530.764 350.3,540.059 350.49,549.124 350.68,557.966 350.869,566.597 351.059,575.023 " />
<polyline fill="none" vector-effect="none" points="459.198,268.58 459.387,276.293 459.577,284.835 459.767,294.072 459.957,303.877 460.146,314.132 460.336,324.731 460.526,335.578 460.715,346.593 460.905,357.705 461.095,368.854 461.285,379.992 461.474,391.077 461.664,402.077 461.854,412.965 462.043,423.721 462.233,434.328 462.423,444.774 462.613,455.05 462.802,465.149 462.992,475.069 463.182,484.805 463.371,494.358 463.561,503.728 463.751,512.916 463.941,521.924 464.13,530.755 464.32,539.412 464.51,547.898 464.699,556.217 464.889,564.372 465.079,572.367 465.269,580.207 " />
<polyline fill="none" vector-effect="none" points="572.459,219.722 572.648,217.663 572.838,217.298 573.028,218.639 573.218,221.646 573.407,226.235 573.597,232.282 573.787,239.636 573.976,248.129 574.166,257.586 574.356,267.836 574.545,278.717 574.735,290.082 574.925,301.799 575.115,313.755 575.304,325.854 575.494,338.014 575.684,350.169 575.874,362.266 576.063,374.261 576.253,386.121 576.443,397.82 576.632,409.338 576.822,420.661 577.012,431.778 577.202,442.684 577.391,453.374 577.581,463.847 577.771,474.103 577.96,484.143 578.15,493.97 578.34,503.587 578.53,512.999 578.719,522.21 578.909,531.224 579.099,540.047 579.288,548.683 579.478,557.139 579.668,565.418 579.858,573.526 580.047,581.468 " />
<polyline fill="none" vector-effect="none" points="686.099,87.4589 686.289,72.6948 686.478,60.9068 686.668,52.8195 686.858,49.0001 687.048,49.7376 687.237,54.9757 687.427,64.3252 687.617,77.1541 687.807,92.7147 687.996,110.258 688.186,129.115 688.375,148.731 688.565,168.678 688.755,188.635 688.945,208.376 689.134,227.746 689.324,246.645 689.514,265.011 689.704,282.814 689.893,300.038 690.083,316.685 690.273,332.766 690.462,348.295 690.652,363.293 690.842,377.781 691.032,391.781 691.221,405.316 691.411,418.408 691.601,431.08 691.791,443.352 691.98,455.245 692.17,466.776 692.36,477.965 692.549,488.828 692.739,499.381 692.929,509.64 693.119,519.617 693.308,529.327 693.498,538.782 693.688,547.994 693.877,556.973 694.067,565.729 694.257,574.273 " />
<polyline fill="none" vector-effect="none" points="802.964,415.567 803.154,424.259 803.344,433.035 803.534,441.863 803.723,450.713 803.913,459.559 804.103,468.381 804.293,477.159 804.482,485.877 804.672,494.524 804.862,503.088 805.051,511.559 805.241,519.932 805.431,528.201 805.621,536.36 805.81,544.407 806,552.34 " />
</g>

<g fill="none" stroke="#1171be" stroke-opacity="1" stroke-width="2" stroke-linecap="butt" stroke-linejoin="miter" stroke-miterlimit="2" transform="matrix(0.75,0,0,0.749162,-52.5,-17.229)"
font-family="Helvetica" font-size="14" font-weight="700" font-style="normal" 
>
<path vector-effect="none" fill-rule="evenodd" d="M120,534.63 C120,532.421 118.209,530.63 116,530.63 C113.791,530.63 112,532.421 112,534.63 C112,536.839 113.791,538.63 116,538.63 C118.209,538.63 120,536.839 120,534.63 "/>
<path vector-effect="none" fill-rule="evenodd" d="M120.19,531.872 C120.19,529.663 118.399,527.872 116.19,527.872 C113.981,527.872 112.19,529.663 112.19,531.872 C112.19,534.081 113.981,535.872 116.19,535.872 C118.399,535.872 120.19,534.081 120.19,531.872 "/>
<path vector-effect="none" fill-rule="evenodd" d="M120.379,529.351 C120.379,527.141 118.589,525.351 116.379,525.351 C114.17,525.351 112.379,527.141 112.379,529.351 C112.379,531.56 114.17,533.351 116.379,533.351 C118.589,533.351 120.379,531.56 120.379,529.351 "/>
<path vector-effect="none" fill-rule="evenodd" d="M120.569,527.077 C120.569,524.868 118.778,523.077 116.569,523.077 C114.36,523.077 112.569,524.868 112.569,527.077 C112.569,529.286 114.36,531.077 116.569,531.077 C118.778,531.077 120.569,529.286 120.569,527.077 "/>
<path vector-effect="none" fill-rule="evenodd" d="M120.759,525.063 C120.759,522.854 118.968,521.063 116.759,521.063 C114.55,521.063 112.759,522.854 112.759,525.063 C112.759,527.272 114.55,529.063 116.759,529.063 C118.968,529.063 120.759,527.272 120.759,525.063 "/>
<path vector-effect="none" fill-rule="evenodd" d="M120.949,523.317 C120.949,521.108 119.158,519.317 116.949,519.317 C114.739,519.317 112.949,521.108 112.949,523.317 C112.949,525.526 114.739,527.317 116.949,527.317 C119.158,527.317 120.949,525.526 120.949,523.317 "/>
<path vector-effect="none" fill-rule="evenodd" d="M121.138,521.849 C121.138,519.64 119.347,517.849 117.138,517.849 C114.929,517.849 113.138,519.64 113.138,521.849 C113.138,524.058 114.929,525.849 117.138,525.849 C119.347,525.849 121.138,524.058 121.138,521.849 "/>
<path vector-effect="none" fill-rule="evenodd" d="M121.328,520.665 C121.328,518.456 119.537,516.665 117.328,516.665 C115.119,516.665 113.328,518.456 113.328,520.665 C113.328,522.874 115.119,524.665 117.328,524.665 C119.537,524.665 121.328,522.874 121.328,520.665 "/>
<path vector-effect="none" fill-rule="evenodd" d="M121.518,519.772 C121.518,517.563 119.727,515.772 117.518,515.772 C115.309,515.772 113.518,517.563 113.518,519.772 C113.518,521.981 115.309,523.772 117.518,523.772 C119.727,523.772 121.518,521.981 121.518,519.772 "/>
<path vector-effect="none" fill-rule="evenodd" d="M121.707,519.174 C121.707,516.965 119.917,515.174 117.707,515.174 C115.498,515.174 113.707,516.965 113.707,519.174 C113.707,521.383 115.498,523.174 117.707,523.174 C119.917,523.174 121.707,521.383 121.707,519.174 "/>
<path vector-effect="none" fill-rule="evenodd" d="M121.897,518.876 C121.897,516.666 120.106,514.876 117.897,514.876 C115.688,514.876 113.897,516.666 113.897,518.876 C113.897,521.085 115.688,522.876 117.897,522.876 C120.106,522.876 121.897,521.085 121.897,518.876 "/>
<path vector-effect="none" fill-rule="evenodd" d="M122.087,518.877 C122.087,516.668 120.296,514.877 118.087,514.877 C115.878,514.877 114.087,516.668 114.087,518.877 C114.087,521.086 115.878,522.877 118.087,522.877 C120.296,522.877 122.087,521.086 122.087,518.877 "/>
<path vector-effect="none" fill-rule="evenodd" d="M122.277,519.18 C122.277,516.97 120.486,515.18 118.277,515.18 C116.067,515.18 114.277,516.97 114.277,519.18 C114.277,521.389 116.067,523.18 118.277,523.18 C120.486,523.18 122.277,521.389 122.277,519.18 "/>
<path vector-effect="none" fill-rule="evenodd" d="M122.466,519.78 C122.466,517.571 120.675,515.78 118.466,515.78 C116.257,515.78 114.466,517.571 114.466,519.78 C114.466,521.99 116.257,523.78 118.466,523.78 C120.675,523.78 122.466,521.99 122.466,519.78 "/>
<path vector-effect="none" fill-rule="evenodd" d="M122.656,520.677 C122.656,518.468 120.865,516.677 118.656,516.677 C116.447,516.677 114.656,518.468 114.656,520.677 C114.656,522.887 116.447,524.677 118.656,524.677 C120.865,524.677 122.656,522.887 122.656,520.677 "/>
<path vector-effect="none" fill-rule="evenodd" d="M122.846,521.865 C122.846,519.656 121.055,517.865 118.846,517.865 C116.637,517.865 114.846,519.656 114.846,521.865 C114.846,524.075 116.637,525.865 118.846,525.865 C121.055,525.865 122.846,524.075 122.846,521.865 "/>
<path vector-effect="none" fill-rule="evenodd" d="M123.035,523.339 C123.035,521.13 121.245,519.339 119.035,519.339 C116.826,519.339 115.035,521.13 115.035,523.339 C115.035,525.548 116.826,527.339 119.035,527.339 C121.245,527.339 123.035,525.548 123.035,523.339 "/>
<path vector-effect="none" fill-rule="evenodd" d="M123.225,525.09 C123.225,522.881 121.434,521.09 119.225,521.09 C117.016,521.09 115.225,522.881 115.225,525.09 C115.225,527.299 117.016,529.09 119.225,529.09 C121.434,529.09 123.225,527.299 123.225,525.09 "/>
<path vector-effect="none" fill-rule="evenodd" d="M228.897,499.349 C228.897,497.14 227.107,495.349 224.897,495.349 C222.688,495.349 220.897,497.14 220.897,499.349 C220.897,501.558 222.688,503.349 224.897,503.349 C227.107,503.349 228.897,501.558 228.897,499.349 "/>
<path vector-effect="none" fill-rule="evenodd" d="M229.087,489.547 C229.087,487.338 227.296,485.547 225.087,485.547 C222.878,485.547 221.087,487.338 221.087,489.547 C221.087,491.756 222.878,493.547 225.087,493.547 C227.296,493.547 229.087,491.756 229.087,489.547 "/>
<path vector-effect="none" fill-rule="evenodd" d="M229.277,479.533 C229.277,477.324 227.486,475.533 225.277,475.533 C223.068,475.533 221.277,477.324 221.277,479.533 C221.277,481.742 223.068,483.533 225.277,483.533 C227.486,483.533 229.277,481.742 229.277,479.533 "/>
<path vector-effect="none" fill-rule="evenodd" d="M229.467,469.303 C229.467,467.094 227.676,465.303 225.467,465.303 C223.257,465.303 221.467,467.094 221.467,469.303 C221.467,471.512 223.257,473.303 225.467,473.303 C227.676,473.303 229.467,471.512 229.467,469.303 "/>
<path vector-effect="none" fill-rule="evenodd" d="M229.656,458.856 C229.656,456.647 227.865,454.856 225.656,454.856 C223.447,454.856 221.656,456.647 221.656,458.856 C221.656,461.065 223.447,462.856 225.656,462.856 C227.865,462.856 229.656,461.065 229.656,458.856 "/>
<path vector-effect="none" fill-rule="evenodd" d="M229.846,448.192 C229.846,445.983 228.055,444.192 225.846,444.192 C223.637,444.192 221.846,445.983 221.846,448.192 C221.846,450.401 223.637,452.192 225.846,452.192 C228.055,452.192 229.846,450.401 229.846,448.192 "/>
<path vector-effect="none" fill-rule="evenodd" d="M230.036,437.312 C230.036,435.102 228.245,433.312 226.036,433.312 C223.827,433.312 222.036,435.102 222.036,437.312 C222.036,439.521 223.827,441.312 226.036,441.312 C228.245,441.312 230.036,439.521 230.036,437.312 "/>
<path vector-effect="none" fill-rule="evenodd" d="M230.225,426.219 C230.225,424.01 228.435,422.219 226.225,422.219 C224.016,422.219 222.225,424.01 222.225,426.219 C222.225,428.428 224.016,430.219 226.225,430.219 C228.435,430.219 230.225,428.428 230.225,426.219 "/>
<path vector-effect="none" fill-rule="evenodd" d="M230.415,414.921 C230.415,412.712 228.624,410.921 226.415,410.921 C224.206,410.921 222.415,412.712 222.415,414.921 C222.415,417.13 224.206,418.921 226.415,418.921 C228.624,418.921 230.415,417.13 230.415,414.921 "/>
<path vector-effect="none" fill-rule="evenodd" d="M230.605,403.426 C230.605,401.217 228.814,399.426 226.605,399.426 C224.396,399.426 222.605,401.217 222.605,403.426 C222.605,405.635 224.396,407.426 226.605,407.426 C228.814,407.426 230.605,405.635 230.605,403.426 "/>
<path vector-effect="none" fill-rule="evenodd" d="M230.795,391.749 C230.795,389.54 229.004,387.749 226.795,387.749 C224.585,387.749 222.795,389.54 222.795,391.749 C222.795,393.958 224.585,395.749 226.795,395.749 C229.004,395.749 230.795,393.958 230.795,391.749 "/>
<path vector-effect="none" fill-rule="evenodd" d="M230.984,379.91 C230.984,377.7 229.193,375.91 226.984,375.91 C224.775,375.91 222.984,377.7 222.984,379.91 C222.984,382.119 224.775,383.91 226.984,383.91 C229.193,383.91 230.984,382.119 230.984,379.91 "/>
<path vector-effect="none" fill-rule="evenodd" d="M231.174,367.932 C231.174,365.723 229.383,363.932 227.174,363.932 C224.965,363.932 223.174,365.723 223.174,367.932 C223.174,370.141 224.965,371.932 227.174,371.932 C229.383,371.932 231.174,370.141 231.174,367.932 "/>
<path vector-effect="none" fill-rule="evenodd" d="M231.364,355.85 C231.364,353.641 229.573,351.85 227.364,351.85 C225.155,351.85 223.364,353.641 223.364,355.85 C223.364,358.059 225.155,359.85 227.364,359.85 C229.573,359.85 231.364,358.059 231.364,355.85 "/>
<path vector-effect="none" fill-rule="evenodd" d="M231.554,343.705 C231.554,341.496 229.763,339.705 227.554,339.705 C225.344,339.705 223.554,341.496 223.554,343.705 C223.554,345.914 225.344,347.705 227.554,347.705 C229.763,347.705 231.554,345.914 231.554,343.705 "/>
<path vector-effect="none" fill-rule="evenodd" d="M231.743,331.551 C231.743,329.342 229.952,327.551 227.743,327.551 C225.534,327.551 223.743,329.342 223.743,331.551 C223.743,333.76 225.534,335.551 227.743,335.551 C229.952,335.551 231.743,333.76 231.743,331.551 "/>
<path vector-effect="none" fill-rule="evenodd" d="M231.933,319.452 C231.933,317.243 230.142,315.452 227.933,315.452 C225.724,315.452 223.933,317.243 223.933,319.452 C223.933,321.661 225.724,323.452 227.933,323.452 C230.142,323.452 231.933,321.661 231.933,319.452 "/>
<path vector-effect="none" fill-rule="evenodd" d="M232.123,307.488 C232.123,305.279 230.332,303.488 228.123,303.488 C225.913,303.488 224.123,305.279 224.123,307.488 C224.123,309.697 225.913,311.488 228.123,311.488 C230.332,311.488 232.123,309.697 232.123,307.488 "/>
<path vector-effect="none" fill-rule="evenodd" d="M232.312,295.754 C232.312,293.545 230.522,291.754 228.312,291.754 C226.103,291.754 224.312,293.545 224.312,295.754 C224.312,297.963 226.103,299.754 228.312,299.754 C230.522,299.754 232.312,297.963 232.312,295.754 "/>
<path vector-effect="none" fill-rule="evenodd" d="M232.502,284.363 C232.502,282.154 230.711,280.363 228.502,280.363 C226.293,280.363 224.502,282.154 224.502,284.363 C224.502,286.572 226.293,288.363 228.502,288.363 C230.711,288.363 232.502,286.572 232.502,284.363 "/>
<path vector-effect="none" fill-rule="evenodd" d="M232.692,273.444 C232.692,271.235 230.901,269.444 228.692,269.444 C226.483,269.444 224.692,271.235 224.692,273.444 C224.692,275.653 226.483,277.444 228.692,277.444 C230.901,277.444 232.692,275.653 232.692,273.444 "/>
<path vector-effect="none" fill-rule="evenodd" d="M232.881,263.143 C232.881,260.934 231.091,259.143 228.881,259.143 C226.672,259.143 224.881,260.934 224.881,263.143 C224.881,265.352 226.672,267.143 228.881,267.143 C231.091,267.143 232.881,265.352 232.881,263.143 "/>
<path vector-effect="none" fill-rule="evenodd" d="M233.071,253.621 C233.071,251.412 231.28,249.621 229.071,249.621 C226.862,249.621 225.071,251.412 225.071,253.621 C225.071,255.83 226.862,257.621 229.071,257.621 C231.28,257.621 233.071,255.83 233.071,253.621 "/>
<path vector-effect="none" fill-rule="evenodd" d="M233.261,245.049 C233.261,242.84 231.47,241.049 229.261,241.049 C227.052,241.049 225.261,242.84 225.261,245.049 C225.261,247.258 227.052,249.049 229.261,249.049 C231.47,249.049 233.261,247.258 233.261,245.049 "/>
<path vector-effect="none" fill-rule="evenodd" d="M233.451,237.601 C233.451,235.392 231.66,233.601 229.451,233.601 C227.242,233.601 225.451,235.392 225.451,237.601 C225.451,239.81 227.242,241.601 229.451,241.601 C231.66,241.601 233.451,239.81 233.451,237.601 "/>
<path vector-effect="none" fill-rule="evenodd" d="M233.64,231.446 C233.64,229.237 231.849,227.446 229.64,227.446 C227.431,227.446 225.64,229.237 225.64,231.446 C225.64,233.655 227.431,235.446 229.64,235.446 C231.849,235.446 233.64,233.655 233.64,231.446 "/>
<path vector-effect="none" fill-rule="evenodd" d="M233.83,226.738 C233.83,224.528 232.039,222.738 229.83,222.738 C227.621,222.738 225.83,224.528 225.83,226.738 C225.83,228.947 227.621,230.738 229.83,230.738 C232.039,230.738 233.83,228.947 233.83,226.738 "/>
<path vector-effect="none" fill-rule="evenodd" d="M234.02,223.601 C234.02,221.392 232.229,219.601 230.02,219.601 C227.811,219.601 226.02,221.392 226.02,223.601 C226.02,225.81 227.811,227.601 230.02,227.601 C232.229,227.601 234.02,225.81 234.02,223.601 "/>
<path vector-effect="none" fill-rule="evenodd" d="M234.21,222.125 C234.21,219.916 232.419,218.125 230.21,218.125 C228,218.125 226.21,219.916 226.21,222.125 C226.21,224.334 228,226.125 230.21,226.125 C232.419,226.125 234.21,224.334 234.21,222.125 "/>
<path vector-effect="none" fill-rule="evenodd" d="M234.399,222.353 C234.399,220.144 232.608,218.353 230.399,218.353 C228.19,218.353 226.399,220.144 226.399,222.353 C226.399,224.562 228.19,226.353 230.399,226.353 C232.608,226.353 234.399,224.562 234.399,222.353 "/>
<path vector-effect="none" fill-rule="evenodd" d="M234.589,224.278 C234.589,222.069 232.798,220.278 230.589,220.278 C228.38,220.278 226.589,222.069 226.589,224.278 C226.589,226.487 228.38,228.278 230.589,228.278 C232.798,228.278 234.589,226.487 234.589,224.278 "/>
<path vector-effect="none" fill-rule="evenodd" d="M234.779,227.845 C234.779,225.636 232.988,223.845 230.779,223.845 C228.57,223.845 226.779,225.636 226.779,227.845 C226.779,230.054 228.57,231.845 230.779,231.845 C232.988,231.845 234.779,230.054 234.779,227.845 "/>
<path vector-effect="none" fill-rule="evenodd" d="M234.968,232.953 C234.968,230.744 233.178,228.953 230.968,228.953 C228.759,228.953 226.968,230.744 226.968,232.953 C226.968,235.162 228.759,236.953 230.968,236.953 C233.178,236.953 234.968,235.162 234.968,232.953 "/>
<path vector-effect="none" fill-rule="evenodd" d="M235.158,239.47 C235.158,237.261 233.367,235.47 231.158,235.47 C228.949,235.47 227.158,237.261 227.158,239.47 C227.158,241.679 228.949,243.47 231.158,243.47 C233.367,243.47 235.158,241.679 235.158,239.47 "/>
<path vector-effect="none" fill-rule="evenodd" d="M235.348,247.236 C235.348,245.026 233.557,243.236 231.348,243.236 C229.139,243.236 227.348,245.026 227.348,247.236 C227.348,249.445 229.139,251.236 231.348,251.236 C233.557,251.236 235.348,249.445 235.348,247.236 "/>
<path vector-effect="none" fill-rule="evenodd" d="M235.538,256.08 C235.538,253.87 233.747,252.08 231.538,252.08 C229.328,252.08 227.538,253.87 227.538,256.08 C227.538,258.289 229.328,260.08 231.538,260.08 C233.747,260.08 235.538,258.289 235.538,256.08 "/>
<path vector-effect="none" fill-rule="evenodd" d="M235.727,265.827 C235.727,263.618 233.936,261.827 231.727,261.827 C229.518,261.827 227.727,263.618 227.727,265.827 C227.727,268.037 229.518,269.827 231.727,269.827 C233.936,269.827 235.727,268.037 235.727,265.827 "/>
<path vector-effect="none" fill-rule="evenodd" d="M235.917,276.31 C235.917,274.101 234.126,272.31 231.917,272.31 C229.708,272.31 227.917,274.101 227.917,276.31 C227.917,278.52 229.708,280.31 231.917,280.31 C234.126,280.31 235.917,278.52 235.917,276.31 "/>
<path vector-effect="none" fill-rule="evenodd" d="M236.107,287.372 C236.107,285.162 234.316,283.372 232.107,283.372 C229.898,283.372 228.107,285.162 228.107,287.372 C228.107,289.581 229.898,291.372 232.107,291.372 C234.316,291.372 236.107,289.581 236.107,287.372 "/>
<path vector-effect="none" fill-rule="evenodd" d="M236.296,298.869 C236.296,296.66 234.506,294.869 232.296,294.869 C230.087,294.869 228.296,296.66 228.296,298.869 C228.296,301.078 230.087,302.869 232.296,302.869 C234.506,302.869 236.296,301.078 236.296,298.869 "/>
<path vector-effect="none" fill-rule="evenodd" d="M236.486,310.677 C236.486,308.468 234.695,306.677 232.486,306.677 C230.277,306.677 228.486,308.468 228.486,310.677 C228.486,312.886 230.277,314.677 232.486,314.677 C234.695,314.677 236.486,312.886 236.486,310.677 "/>
<path vector-effect="none" fill-rule="evenodd" d="M236.676,322.689 C236.676,320.48 234.885,318.689 232.676,318.689 C230.467,318.689 228.676,320.48 228.676,322.689 C228.676,324.898 230.467,326.689 232.676,326.689 C234.885,326.689 236.676,324.898 236.676,322.689 "/>
<path vector-effect="none" fill-rule="evenodd" d="M236.866,334.813 C236.866,332.604 235.075,330.813 232.866,330.813 C230.656,330.813 228.866,332.604 228.866,334.813 C228.866,337.022 230.656,338.813 232.866,338.813 C235.075,338.813 236.866,337.022 236.866,334.813 "/>
<path vector-effect="none" fill-rule="evenodd" d="M237.055,346.974 C237.055,344.765 235.264,342.974 233.055,342.974 C230.846,342.974 229.055,344.765 229.055,346.974 C229.055,349.183 230.846,350.974 233.055,350.974 C235.264,350.974 237.055,349.183 237.055,346.974 "/>
<path vector-effect="none" fill-rule="evenodd" d="M237.245,359.111 C237.245,356.902 235.454,355.111 233.245,355.111 C231.036,355.111 229.245,356.902 229.245,359.111 C229.245,361.32 231.036,363.111 233.245,363.111 C235.454,363.111 237.245,361.32 237.245,359.111 "/>
<path vector-effect="none" fill-rule="evenodd" d="M237.435,371.172 C237.435,368.963 235.644,367.172 233.435,367.172 C231.226,367.172 229.435,368.963 229.435,371.172 C229.435,373.382 231.226,375.172 233.435,375.172 C235.644,375.172 237.435,373.382 237.435,371.172 "/>
<path vector-effect="none" fill-rule="evenodd" d="M237.624,383.12 C237.624,380.911 235.834,379.12 233.624,379.12 C231.415,379.12 229.624,380.911 229.624,383.12 C229.624,385.329 231.415,387.12 233.624,387.12 C235.834,387.12 237.624,385.329 237.624,383.12 "/>
<path vector-effect="none" fill-rule="evenodd" d="M237.814,394.922 C237.814,392.713 236.023,390.922 233.814,390.922 C231.605,390.922 229.814,392.713 229.814,394.922 C229.814,397.132 231.605,398.922 233.814,398.922 C236.023,398.922 237.814,397.132 237.814,394.922 "/>
<path vector-effect="none" fill-rule="evenodd" d="M238.004,406.556 C238.004,404.347 236.213,402.556 234.004,402.556 C231.795,402.556 230.004,404.347 230.004,406.556 C230.004,408.765 231.795,410.556 234.004,410.556 C236.213,410.556 238.004,408.765 238.004,406.556 "/>
<path vector-effect="none" fill-rule="evenodd" d="M238.194,418.003 C238.194,415.794 236.403,414.003 234.194,414.003 C231.984,414.003 230.194,415.794 230.194,418.003 C230.194,420.213 231.984,422.003 234.194,422.003 C236.403,422.003 238.194,420.213 238.194,418.003 "/>
<path vector-effect="none" fill-rule="evenodd" d="M238.383,429.252 C238.383,427.042 236.592,425.252 234.383,425.252 C232.174,425.252 230.383,427.042 230.383,429.252 C230.383,431.461 232.174,433.252 234.383,433.252 C236.592,433.252 238.383,431.461 238.383,429.252 "/>
<path vector-effect="none" fill-rule="evenodd" d="M238.573,440.292 C238.573,438.083 236.782,436.292 234.573,436.292 C232.364,436.292 230.573,438.083 230.573,440.292 C230.573,442.501 232.364,444.292 234.573,444.292 C236.782,444.292 238.573,442.501 238.573,440.292 "/>
<path vector-effect="none" fill-rule="evenodd" d="M238.763,451.119 C238.763,448.91 236.972,447.119 234.763,447.119 C232.554,447.119 230.763,448.91 230.763,451.119 C230.763,453.328 232.554,455.119 234.763,455.119 C236.972,455.119 238.763,453.328 238.763,451.119 "/>
<path vector-effect="none" fill-rule="evenodd" d="M238.952,461.729 C238.952,459.52 237.162,457.729 234.952,457.729 C232.743,457.729 230.952,459.52 230.952,461.729 C230.952,463.938 232.743,465.729 234.952,465.729 C237.162,465.729 238.952,463.938 238.952,461.729 "/>
<path vector-effect="none" fill-rule="evenodd" d="M239.142,472.122 C239.142,469.913 237.351,468.122 235.142,468.122 C232.933,468.122 231.142,469.913 231.142,472.122 C231.142,474.331 232.933,476.122 235.142,476.122 C237.351,476.122 239.142,474.331 239.142,472.122 "/>
<path vector-effect="none" fill-rule="evenodd" d="M239.332,482.298 C239.332,480.089 237.541,478.298 235.332,478.298 C233.123,478.298 231.332,480.089 231.332,482.298 C231.332,484.508 233.123,486.298 235.332,486.298 C237.541,486.298 239.332,484.508 239.332,482.298 "/>
<path vector-effect="none" fill-rule="evenodd" d="M239.522,492.26 C239.522,490.051 237.731,488.26 235.522,488.26 C233.312,488.26 231.522,490.051 231.522,492.26 C231.522,494.469 233.312,496.26 235.522,496.26 C237.731,496.26 239.522,494.469 239.522,492.26 "/>
<path vector-effect="none" fill-rule="evenodd" d="M239.711,502.009 C239.711,499.8 237.92,498.009 235.711,498.009 C233.502,498.009 231.711,499.8 231.711,502.009 C231.711,504.218 233.502,506.009 235.711,506.009 C237.92,506.009 239.711,504.218 239.711,502.009 "/>
<path vector-effect="none" fill-rule="evenodd" d="M239.901,511.55 C239.901,509.341 238.11,507.55 235.901,507.55 C233.692,507.55 231.901,509.341 231.901,511.55 C231.901,513.759 233.692,515.55 235.901,515.55 C238.11,515.55 239.901,513.759 239.901,511.55 "/>
<path vector-effect="none" fill-rule="evenodd" d="M240.091,520.887 C240.091,518.678 238.3,516.887 236.091,516.887 C233.882,516.887 232.091,518.678 232.091,520.887 C232.091,523.096 233.882,524.887 236.091,524.887 C238.3,524.887 240.091,523.096 240.091,520.887 "/>
<path vector-effect="none" fill-rule="evenodd" d="M240.28,530.024 C240.28,527.815 238.49,526.024 236.28,526.024 C234.071,526.024 232.28,527.815 232.28,530.024 C232.28,532.233 234.071,534.024 236.28,534.024 C238.49,534.024 240.28,532.233 240.28,530.024 "/>
<path vector-effect="none" fill-rule="evenodd" d="M240.47,538.967 C240.47,536.758 238.679,534.967 236.47,534.967 C234.261,534.967 232.47,536.758 232.47,538.967 C232.47,541.176 234.261,542.967 236.47,542.967 C238.679,542.967 240.47,541.176 240.47,538.967 "/>
<path vector-effect="none" fill-rule="evenodd" d="M240.66,547.719 C240.66,545.51 238.869,543.719 236.66,543.719 C234.451,543.719 232.66,545.51 232.66,547.719 C232.66,549.929 234.451,551.719 236.66,551.719 C238.869,551.719 240.66,549.929 240.66,547.719 "/>
<path vector-effect="none" fill-rule="evenodd" d="M240.85,556.287 C240.85,554.078 239.059,552.287 236.85,552.287 C234.64,552.287 232.85,554.078 232.85,556.287 C232.85,558.496 234.64,560.287 236.85,560.287 C239.059,560.287 240.85,558.496 240.85,556.287 "/>
<path vector-effect="none" fill-rule="evenodd" d="M347.091,110.48 C347.091,108.271 345.3,106.48 343.091,106.48 C340.882,106.48 339.091,108.271 339.091,110.48 C339.091,112.689 340.882,114.48 343.091,114.48 C345.3,114.48 347.091,112.689 347.091,110.48 "/>
<path vector-effect="none" fill-rule="evenodd" d="M347.281,100.994 C347.281,98.7845 345.49,96.9936 343.281,96.9936 C341.072,96.9936 339.281,98.7845 339.281,100.994 C339.281,103.203 341.072,104.994 343.281,104.994 C345.49,104.994 347.281,103.203 347.281,100.994 "/>
<path vector-effect="none" fill-rule="evenodd" d="M347.47,94.5136 C347.47,92.3045 345.68,90.5136 343.47,90.5136 C341.261,90.5136 339.47,92.3045 339.47,94.5136 C339.47,96.7227 341.261,98.5136 343.47,98.5136 C345.68,98.5136 347.47,96.7227 347.47,94.5136 "/>
<path vector-effect="none" fill-rule="evenodd" d="M347.66,91.4018 C347.66,89.1927 345.869,87.4018 343.66,87.4018 C341.451,87.4018 339.66,89.1927 339.66,91.4018 C339.66,93.611 341.451,95.4018 343.66,95.4018 C345.869,95.4018 347.66,93.611 347.66,91.4018 "/>
<path vector-effect="none" fill-rule="evenodd" d="M347.85,91.8436 C347.85,89.6345 346.059,87.8436 343.85,87.8436 C341.641,87.8436 339.85,89.6345 339.85,91.8436 C339.85,94.0528 341.641,95.8436 343.85,95.8436 C346.059,95.8436 347.85,94.0528 347.85,91.8436 "/>
<path vector-effect="none" fill-rule="evenodd" d="M348.04,95.8121 C348.04,93.6029 346.249,91.8121 344.04,91.8121 C341.83,91.8121 340.04,93.6029 340.04,95.8121 C340.04,98.0212 341.83,99.8121 344.04,99.8121 C346.249,99.8121 348.04,98.0212 348.04,95.8121 "/>
<path vector-effect="none" fill-rule="evenodd" d="M348.229,103.073 C348.229,100.864 346.438,99.0732 344.229,99.0732 C342.02,99.0732 340.229,100.864 340.229,103.073 C340.229,105.282 342.02,107.073 344.229,107.073 C346.438,107.073 348.229,105.282 348.229,103.073 "/>
<path vector-effect="none" fill-rule="evenodd" d="M348.419,113.23 C348.419,111.021 346.628,109.23 344.419,109.23 C342.21,109.23 340.419,111.021 340.419,113.23 C340.419,115.439 342.21,117.23 344.419,117.23 C346.628,117.23 348.419,115.439 348.419,113.23 "/>
<path vector-effect="none" fill-rule="evenodd" d="M348.609,125.788 C348.609,123.578 346.818,121.788 344.609,121.788 C342.4,121.788 340.609,123.578 340.609,125.788 C340.609,127.997 342.4,129.788 344.609,129.788 C346.818,129.788 348.609,127.997 348.609,125.788 "/>
<path vector-effect="none" fill-rule="evenodd" d="M348.798,140.221 C348.798,138.012 347.008,136.221 344.798,136.221 C342.589,136.221 340.798,138.012 340.798,140.221 C340.798,142.431 342.589,144.221 344.798,144.221 C347.008,144.221 348.798,142.431 348.798,140.221 "/>
<path vector-effect="none" fill-rule="evenodd" d="M348.988,156.031 C348.988,153.821 347.197,152.031 344.988,152.031 C342.779,152.031 340.988,153.821 340.988,156.031 C340.988,158.24 342.779,160.031 344.988,160.031 C347.197,160.031 348.988,158.24 348.988,156.031 "/>
<path vector-effect="none" fill-rule="evenodd" d="M349.178,172.773 C349.178,170.564 347.387,168.773 345.178,168.773 C342.969,168.773 341.178,170.564 341.178,172.773 C341.178,174.982 342.969,176.773 345.178,176.773 C347.387,176.773 349.178,174.982 349.178,172.773 "/>
<path vector-effect="none" fill-rule="evenodd" d="M349.368,190.078 C349.368,187.869 347.577,186.078 345.368,186.078 C343.158,186.078 341.368,187.869 341.368,190.078 C341.368,192.287 343.158,194.078 345.368,194.078 C347.577,194.078 349.368,192.287 349.368,190.078 "/>
<path vector-effect="none" fill-rule="evenodd" d="M349.557,207.653 C349.557,205.444 347.766,203.653 345.557,203.653 C343.348,203.653 341.557,205.444 341.557,207.653 C341.557,209.862 343.348,211.653 345.557,211.653 C347.766,211.653 349.557,209.862 349.557,207.653 "/>
<path vector-effect="none" fill-rule="evenodd" d="M349.747,225.27 C349.747,223.061 347.956,221.27 345.747,221.27 C343.538,221.27 341.747,223.061 341.747,225.27 C341.747,227.479 343.538,229.27 345.747,229.27 C347.956,229.27 349.747,227.479 349.747,225.27 "/>
<path vector-effect="none" fill-rule="evenodd" d="M349.937,242.761 C349.937,240.552 348.146,238.761 345.937,238.761 C343.728,238.761 341.937,240.552 341.937,242.761 C341.937,244.97 343.728,246.761 345.937,246.761 C348.146,246.761 349.937,244.97 349.937,242.761 "/>
<path vector-effect="none" fill-rule="evenodd" d="M350.126,260.005 C350.126,257.795 348.336,256.005 346.126,256.005 C343.917,256.005 342.126,257.795 342.126,260.005 C342.126,262.214 343.917,264.005 346.126,264.005 C348.336,264.005 350.126,262.214 350.126,260.005 "/>
<path vector-effect="none" fill-rule="evenodd" d="M350.316,276.916 C350.316,274.707 348.525,272.916 346.316,272.916 C344.107,272.916 342.316,274.707 342.316,276.916 C342.316,279.125 344.107,280.916 346.316,280.916 C348.525,280.916 350.316,279.125 350.316,276.916 "/>
<path vector-effect="none" fill-rule="evenodd" d="M350.506,293.439 C350.506,291.23 348.715,289.439 346.506,289.439 C344.297,289.439 342.506,291.23 342.506,293.439 C342.506,295.648 344.297,297.439 346.506,297.439 C348.715,297.439 350.506,295.648 350.506,293.439 "/>
<path vector-effect="none" fill-rule="evenodd" d="M350.696,309.539 C350.696,307.33 348.905,305.539 346.696,305.539 C344.487,305.539 342.696,307.33 342.696,309.539 C342.696,311.748 344.487,313.539 346.696,313.539 C348.905,313.539 350.696,311.748 350.696,309.539 "/>
<path vector-effect="none" fill-rule="evenodd" d="M350.885,325.196 C350.885,322.987 349.094,321.196 346.885,321.196 C344.676,321.196 342.885,322.987 342.885,325.196 C342.885,327.405 344.676,329.196 346.885,329.196 C349.094,329.196 350.885,327.405 350.885,325.196 "/>
<path vector-effect="none" fill-rule="evenodd" d="M351.075,340.402 C351.075,338.193 349.284,336.402 347.075,336.402 C344.866,336.402 343.075,338.193 343.075,340.402 C343.075,342.611 344.866,344.402 347.075,344.402 C349.284,344.402 351.075,342.611 351.075,340.402 "/>
<path vector-effect="none" fill-rule="evenodd" d="M351.265,355.158 C351.265,352.949 349.474,351.158 347.265,351.158 C345.056,351.158 343.265,352.949 343.265,355.158 C343.265,357.367 345.056,359.158 347.265,359.158 C349.474,359.158 351.265,357.367 351.265,355.158 "/>
<path vector-effect="none" fill-rule="evenodd" d="M351.454,369.47 C351.454,367.261 349.664,365.47 347.454,365.47 C345.245,365.47 343.454,367.261 343.454,369.47 C343.454,371.679 345.245,373.47 347.454,373.47 C349.664,373.47 351.454,371.679 351.454,369.47 "/>
<path vector-effect="none" fill-rule="evenodd" d="M351.644,383.347 C351.644,381.138 349.853,379.347 347.644,379.347 C345.435,379.347 343.644,381.138 343.644,383.347 C343.644,385.556 345.435,387.347 347.644,387.347 C349.853,387.347 351.644,385.556 351.644,383.347 "/>
<path vector-effect="none" fill-rule="evenodd" d="M351.834,396.802 C351.834,394.593 350.043,392.802 347.834,392.802 C345.625,392.802 343.834,394.593 343.834,396.802 C343.834,399.011 345.625,400.802 347.834,400.802 C350.043,400.802 351.834,399.011 351.834,396.802 "/>
<path vector-effect="none" fill-rule="evenodd" d="M352.024,409.849 C352.024,407.64 350.233,405.849 348.024,405.849 C345.814,405.849 344.024,407.64 344.024,409.849 C344.024,412.058 345.814,413.849 348.024,413.849 C350.233,413.849 352.024,412.058 352.024,409.849 "/>
<path vector-effect="none" fill-rule="evenodd" d="M352.213,422.504 C352.213,420.295 350.422,418.504 348.213,418.504 C346.004,418.504 344.213,420.295 344.213,422.504 C344.213,424.713 346.004,426.504 348.213,426.504 C350.422,426.504 352.213,424.713 352.213,422.504 "/>
<path vector-effect="none" fill-rule="evenodd" d="M352.403,434.782 C352.403,432.573 350.612,430.782 348.403,430.782 C346.194,430.782 344.403,432.573 344.403,434.782 C344.403,436.991 346.194,438.782 348.403,438.782 C350.612,438.782 352.403,436.991 352.403,434.782 "/>
<path vector-effect="none" fill-rule="evenodd" d="M352.593,446.698 C352.593,444.489 350.802,442.698 348.593,442.698 C346.384,442.698 344.593,444.489 344.593,446.698 C344.593,448.907 346.384,450.698 348.593,450.698 C350.802,450.698 352.593,448.907 352.593,446.698 "/>
<path vector-effect="none" fill-rule="evenodd" d="M352.782,458.268 C352.782,456.059 350.992,454.268 348.782,454.268 C346.573,454.268 344.782,456.059 344.782,458.268 C344.782,460.477 346.573,462.268 348.782,462.268 C350.992,462.268 352.782,460.477 352.782,458.268 "/>
<path vector-effect="none" fill-rule="evenodd" d="M352.972,469.507 C352.972,467.298 351.181,465.507 348.972,465.507 C346.763,465.507 344.972,467.298 344.972,469.507 C344.972,471.716 346.763,473.507 348.972,473.507 C351.181,473.507 352.972,471.716 352.972,469.507 "/>
<path vector-effect="none" fill-rule="evenodd" d="M353.162,480.43 C353.162,478.221 351.371,476.43 349.162,476.43 C346.953,476.43 345.162,478.221 345.162,480.43 C345.162,482.639 346.953,484.43 349.162,484.43 C351.371,484.43 353.162,482.639 353.162,480.43 "/>
<path vector-effect="none" fill-rule="evenodd" d="M353.352,491.05 C353.352,488.841 351.561,487.05 349.352,487.05 C347.143,487.05 345.352,488.841 345.352,491.05 C345.352,493.259 347.143,495.05 349.352,495.05 C351.561,495.05 353.352,493.259 353.352,491.05 "/>
<path vector-effect="none" fill-rule="evenodd" d="M353.541,501.381 C353.541,499.172 351.751,497.381 349.541,497.381 C347.332,497.381 345.541,499.172 345.541,501.381 C345.541,503.59 347.332,505.381 349.541,505.381 C351.751,505.381 353.541,503.59 353.541,501.381 "/>
<path vector-effect="none" fill-rule="evenodd" d="M353.731,511.436 C353.731,509.226 351.94,507.436 349.731,507.436 C347.522,507.436 345.731,509.226 345.731,511.436 C345.731,513.645 347.522,515.436 349.731,515.436 C351.94,515.436 353.731,513.645 353.731,511.436 "/>
<path vector-effect="none" fill-rule="evenodd" d="M353.921,521.226 C353.921,519.017 352.13,517.226 349.921,517.226 C347.712,517.226 345.921,519.017 345.921,521.226 C345.921,523.435 347.712,525.226 349.921,525.226 C352.13,525.226 353.921,523.435 353.921,521.226 "/>
<path vector-effect="none" fill-rule="evenodd" d="M354.111,530.764 C354.111,528.554 352.32,526.764 350.111,526.764 C347.901,526.764 346.111,528.554 346.111,530.764 C346.111,532.973 347.901,534.764 350.111,534.764 C352.32,534.764 354.111,532.973 354.111,530.764 "/>
<path vector-effect="none" fill-rule="evenodd" d="M354.3,540.059 C354.3,537.85 352.509,536.059 350.3,536.059 C348.091,536.059 346.3,537.85 346.3,540.059 C346.3,542.269 348.091,544.059 350.3,544.059 C352.509,544.059 354.3,542.269 354.3,540.059 "/>
<path vector-effect="none" fill-rule="evenodd" d="M354.49,549.124 C354.49,546.915 352.699,545.124 350.49,545.124 C348.281,545.124 346.49,546.915 346.49,549.124 C346.49,551.333 348.281,553.124 350.49,553.124 C352.699,553.124 354.49,551.333 354.49,549.124 "/>
<path vector-effect="none" fill-rule="evenodd" d="M354.68,557.966 C354.68,555.757 352.889,553.966 350.68,553.966 C348.471,553.966 346.68,555.757 346.68,557.966 C346.68,560.176 348.471,561.966 350.68,561.966 C352.889,561.966 354.68,560.176 354.68,557.966 "/>
<path vector-effect="none" fill-rule="evenodd" d="M354.869,566.597 C354.869,564.387 353.078,562.597 350.869,562.597 C348.66,562.597 346.869,564.387 346.869,566.597 C346.869,568.806 348.66,570.597 350.869,570.597 C353.078,570.597 354.869,568.806 354.869,566.597 "/>
<path vector-effect="none" fill-rule="evenodd" d="M355.059,575.023 C355.059,572.814 353.268,571.023 351.059,571.023 C348.85,571.023 347.059,572.814 347.059,575.023 C347.059,577.232 348.85,579.023 351.059,579.023 C353.268,579.023 355.059,577.232 355.059,575.023 "/>
<path vector-effect="none" fill-rule="evenodd" d="M463.198,268.58 C463.198,266.371 461.407,264.58 459.198,264.58 C456.989,264.58 455.198,266.371 455.198,268.58 C455.198,270.789 456.989,272.58 459.198,272.58 C461.407,272.58 463.198,270.789 463.198,268.58 "/>
<path vector-effect="none" fill-rule="evenodd" d="M463.387,276.293 C463.387,274.084 461.597,272.293 459.387,272.293 C457.178,272.293 455.387,274.084 455.387,276.293 C455.387,278.502 457.178,280.293 459.387,280.293 C461.597,280.293 463.387,278.502 463.387,276.293 "/>
<path vector-effect="none" fill-rule="evenodd" d="M463.577,284.835 C463.577,282.626 461.786,280.835 459.577,280.835 C457.368,280.835 455.577,282.626 455.577,284.835 C455.577,287.044 457.368,288.835 459.577,288.835 C461.786,288.835 463.577,287.044 463.577,284.835 "/>
<path vector-effect="none" fill-rule="evenodd" d="M463.767,294.072 C463.767,291.863 461.976,290.072 459.767,290.072 C457.558,290.072 455.767,291.863 455.767,294.072 C455.767,296.281 457.558,298.072 459.767,298.072 C461.976,298.072 463.767,296.281 463.767,294.072 "/>
<path vector-effect="none" fill-rule="evenodd" d="M463.957,303.877 C463.957,301.668 462.166,299.877 459.957,299.877 C457.747,299.877 455.957,301.668 455.957,303.877 C455.957,306.086 457.747,307.877 459.957,307.877 C462.166,307.877 463.957,306.086 463.957,303.877 "/>
<path vector-effect="none" fill-rule="evenodd" d="M464.146,314.132 C464.146,311.923 462.355,310.132 460.146,310.132 C457.937,310.132 456.146,311.923 456.146,314.132 C456.146,316.341 457.937,318.132 460.146,318.132 C462.355,318.132 464.146,316.341 464.146,314.132 "/>
<path vector-effect="none" fill-rule="evenodd" d="M464.336,324.731 C464.336,322.521 462.545,320.731 460.336,320.731 C458.127,320.731 456.336,322.521 456.336,324.731 C456.336,326.94 458.127,328.731 460.336,328.731 C462.545,328.731 464.336,326.94 464.336,324.731 "/>
<path vector-effect="none" fill-rule="evenodd" d="M464.526,335.578 C464.526,333.369 462.735,331.578 460.526,331.578 C458.317,331.578 456.526,333.369 456.526,335.578 C456.526,337.787 458.317,339.578 460.526,339.578 C462.735,339.578 464.526,337.787 464.526,335.578 "/>
<path vector-effect="none" fill-rule="evenodd" d="M464.715,346.593 C464.715,344.384 462.925,342.593 460.715,342.593 C458.506,342.593 456.715,344.384 456.715,346.593 C456.715,348.802 458.506,350.593 460.715,350.593 C462.925,350.593 464.715,348.802 464.715,346.593 "/>
<path vector-effect="none" fill-rule="evenodd" d="M464.905,357.705 C464.905,355.496 463.114,353.705 460.905,353.705 C458.696,353.705 456.905,355.496 456.905,357.705 C456.905,359.914 458.696,361.705 460.905,361.705 C463.114,361.705 464.905,359.914 464.905,357.705 "/>
<path vector-effect="none" fill-rule="evenodd" d="M465.095,368.854 C465.095,366.645 463.304,364.854 461.095,364.854 C458.886,364.854 457.095,366.645 457.095,368.854 C457.095,371.063 458.886,372.854 461.095,372.854 C463.304,372.854 465.095,371.063 465.095,368.854 "/>
<path vector-effect="none" fill-rule="evenodd" d="M465.285,379.992 C465.285,377.783 463.494,375.992 461.285,375.992 C459.075,375.992 457.285,377.783 457.285,379.992 C457.285,382.201 459.075,383.992 461.285,383.992 C463.494,383.992 465.285,382.201 465.285,379.992 "/>
<path vector-effect="none" fill-rule="evenodd" d="M465.474,391.077 C465.474,388.868 463.683,387.077 461.474,387.077 C459.265,387.077 457.474,388.868 457.474,391.077 C457.474,393.286 459.265,395.077 461.474,395.077 C463.683,395.077 465.474,393.286 465.474,391.077 "/>
<path vector-effect="none" fill-rule="evenodd" d="M465.664,402.077 C465.664,399.868 463.873,398.077 461.664,398.077 C459.455,398.077 457.664,399.868 457.664,402.077 C457.664,404.286 459.455,406.077 461.664,406.077 C463.873,406.077 465.664,404.286 465.664,402.077 "/>
<path vector-effect="none" fill-rule="evenodd" d="M465.854,412.965 C465.854,410.756 464.063,408.965 461.854,408.965 C459.645,408.965 457.854,410.756 457.854,412.965 C457.854,415.175 459.645,416.965 461.854,416.965 C464.063,416.965 465.854,415.175 465.854,412.965 "/>
<path vector-effect="none" fill-rule="evenodd" d="M466.043,423.721 C466.043,421.512 464.253,419.721 462.043,419.721 C459.834,419.721 458.043,421.512 458.043,423.721 C458.043,425.93 459.834,427.721 462.043,427.721 C464.253,427.721 466.043,425.93 466.043,423.721 "/>
<path vector-effect="none" fill-rule="evenodd" d="M466.233,434.328 C466.233,432.119 464.442,430.328 462.233,430.328 C460.024,430.328 458.233,432.119 458.233,434.328 C458.233,436.537 460.024,438.328 462.233,438.328 C464.442,438.328 466.233,436.537 466.233,434.328 "/>
<path vector-effect="none" fill-rule="evenodd" d="M466.423,444.774 C466.423,442.565 464.632,440.774 462.423,440.774 C460.214,440.774 458.423,442.565 458.423,444.774 C458.423,446.983 460.214,448.774 462.423,448.774 C464.632,448.774 466.423,446.983 466.423,444.774 "/>
<path vector-effect="none" fill-rule="evenodd" d="M466.613,455.05 C466.613,452.841 464.822,451.05 462.613,451.05 C460.403,451.05 458.613,452.841 458.613,455.05 C458.613,457.259 460.403,459.05 462.613,459.05 C464.822,459.05 466.613,457.259 466.613,455.05 "/>
<path vector-effect="none" fill-rule="evenodd" d="M466.802,465.149 C466.802,462.94 465.011,461.149 462.802,461.149 C460.593,461.149 458.802,462.94 458.802,465.149 C458.802,467.358 460.593,469.149 462.802,469.149 C465.011,469.149 466.802,467.358 466.802,465.149 "/>
<path vector-effect="none" fill-rule="evenodd" d="M466.992,475.069 C466.992,472.859 465.201,471.069 462.992,471.069 C460.783,471.069 458.992,472.859 458.992,475.069 C458.992,477.278 460.783,479.069 462.992,479.069 C465.201,479.069 466.992,477.278 466.992,475.069 "/>
<path vector-effect="none" fill-rule="evenodd" d="M467.182,484.805 C467.182,482.596 465.391,480.805 463.182,480.805 C460.973,480.805 459.182,482.596 459.182,484.805 C459.182,487.014 460.973,488.805 463.182,488.805 C465.391,488.805 467.182,487.014 467.182,484.805 "/>
<path vector-effect="none" fill-rule="evenodd" d="M467.371,494.358 C467.371,492.149 465.581,490.358 463.371,490.358 C461.162,490.358 459.371,492.149 459.371,494.358 C459.371,496.567 461.162,498.358 463.371,498.358 C465.581,498.358 467.371,496.567 467.371,494.358 "/>
<path vector-effect="none" fill-rule="evenodd" d="M467.561,503.728 C467.561,501.519 465.77,499.728 463.561,499.728 C461.352,499.728 459.561,501.519 459.561,503.728 C459.561,505.937 461.352,507.728 463.561,507.728 C465.77,507.728 467.561,505.937 467.561,503.728 "/>
<path vector-effect="none" fill-rule="evenodd" d="M467.751,512.916 C467.751,510.707 465.96,508.916 463.751,508.916 C461.542,508.916 459.751,510.707 459.751,512.916 C459.751,515.125 461.542,516.916 463.751,516.916 C465.96,516.916 467.751,515.125 467.751,512.916 "/>
<path vector-effect="none" fill-rule="evenodd" d="M467.941,521.924 C467.941,519.715 466.15,517.924 463.941,517.924 C461.732,517.924 459.941,519.715 459.941,521.924 C459.941,524.134 461.732,525.924 463.941,525.924 C466.15,525.924 467.941,524.134 467.941,521.924 "/>
<path vector-effect="none" fill-rule="evenodd" d="M468.13,530.755 C468.13,528.546 466.339,526.755 464.13,526.755 C461.921,526.755 460.13,528.546 460.13,530.755 C460.13,532.965 461.921,534.755 464.13,534.755 C466.339,534.755 468.13,532.965 468.13,530.755 "/>
<path vector-effect="none" fill-rule="evenodd" d="M468.32,539.412 C468.32,537.203 466.529,535.412 464.32,535.412 C462.111,535.412 460.32,537.203 460.32,539.412 C460.32,541.621 462.111,543.412 464.32,543.412 C466.529,543.412 468.32,541.621 468.32,539.412 "/>
<path vector-effect="none" fill-rule="evenodd" d="M468.51,547.898 C468.51,545.689 466.719,543.898 464.51,543.898 C462.301,543.898 460.51,545.689 460.51,547.898 C460.51,550.107 462.301,551.898 464.51,551.898 C466.719,551.898 468.51,550.107 468.51,547.898 "/>
<path vector-effect="none" fill-rule="evenodd" d="M468.699,556.217 C468.699,554.007 466.909,552.217 464.699,552.217 C462.49,552.217 460.699,554.007 460.699,556.217 C460.699,558.426 462.49,560.217 464.699,560.217 C466.909,560.217 468.699,558.426 468.699,556.217 "/>
<path vector-effect="none" fill-rule="evenodd" d="M468.889,564.372 C468.889,562.163 467.098,560.372 464.889,560.372 C462.68,560.372 460.889,562.163 460.889,564.372 C460.889,566.581 462.68,568.372 464.889,568.372 C467.098,568.372 468.889,566.581 468.889,564.372 "/>
<path vector-effect="none" fill-rule="evenodd" d="M469.079,572.367 C469.079,570.158 467.288,568.367 465.079,568.367 C462.87,568.367 461.079,570.158 461.079,572.367 C461.079,574.577 462.87,576.367 465.079,576.367 C467.288,576.367 469.079,574.577 469.079,572.367 "/>
<path vector-effect="none" fill-rule="evenodd" d="M469.269,580.207 C469.269,577.998 467.478,576.207 465.269,576.207 C463.059,576.207 461.269,577.998 461.269,580.207 C461.269,582.416 463.059,584.207 465.269,584.207 C467.478,584.207 469.269,582.416 469.269,580.207 "/>
<path vector-effect="none" fill-rule="evenodd" d="M576.459,219.722 C576.459,217.513 574.668,215.722 572.459,215.722 C570.249,215.722 568.459,217.513 568.459,219.722 C568.459,221.931 570.249,223.722 572.459,223.722 C574.668,223.722 576.459,221.931 576.459,219.722 "/>
<path vector-effect="none" fill-rule="evenodd" d="M576.648,217.663 C576.648,215.454 574.857,213.663 572.648,213.663 C570.439,213.663 568.648,215.454 568.648,217.663 C568.648,219.872 570.439,221.663 572.648,221.663 C574.857,221.663 576.648,219.872 576.648,217.663 "/>
<path vector-effect="none" fill-rule="evenodd" d="M576.838,217.298 C576.838,215.089 575.047,213.298 572.838,213.298 C570.629,213.298 568.838,215.089 568.838,217.298 C568.838,219.507 570.629,221.298 572.838,221.298 C575.047,221.298 576.838,219.507 576.838,217.298 "/>
<path vector-effect="none" fill-rule="evenodd" d="M577.028,218.639 C577.028,216.43 575.237,214.639 573.028,214.639 C570.819,214.639 569.028,216.43 569.028,218.639 C569.028,220.848 570.819,222.639 573.028,222.639 C575.237,222.639 577.028,220.848 577.028,218.639 "/>
<path vector-effect="none" fill-rule="evenodd" d="M577.218,221.646 C577.218,219.437 575.427,217.646 573.218,217.646 C571.008,217.646 569.218,219.437 569.218,221.646 C569.218,223.855 571.008,225.646 573.218,225.646 C575.427,225.646 577.218,223.855 577.218,221.646 "/>
<path vector-effect="none" fill-rule="evenodd" d="M577.407,226.235 C577.407,224.026 575.616,222.235 573.407,222.235 C571.198,222.235 569.407,224.026 569.407,226.235 C569.407,228.444 571.198,230.235 573.407,230.235 C575.616,230.235 577.407,228.444 577.407,226.235 "/>
<path vector-effect="none" fill-rule="evenodd" d="M577.597,232.282 C577.597,230.073 575.806,228.282 573.597,228.282 C571.388,228.282 569.597,230.073 569.597,232.282 C569.597,234.491 571.388,236.282 573.597,236.282 C575.806,236.282 577.597,234.491 577.597,232.282 "/>
<path vector-effect="none" fill-rule="evenodd" d="M577.787,239.636 C577.787,237.427 575.996,235.636 573.787,235.636 C571.577,235.636 569.787,237.427 569.787,239.636 C569.787,241.845 571.577,243.636 573.787,243.636 C575.996,243.636 577.787,241.845 577.787,239.636 "/>
<path vector-effect="none" fill-rule="evenodd" d="M577.976,248.129 C577.976,245.92 576.186,244.129 573.976,244.129 C571.767,244.129 569.976,245.92 569.976,248.129 C569.976,250.338 571.767,252.129 573.976,252.129 C576.186,252.129 577.976,250.338 577.976,248.129 "/>
<path vector-effect="none" fill-rule="evenodd" d="M578.166,257.586 C578.166,255.377 576.375,253.586 574.166,253.586 C571.957,253.586 570.166,255.377 570.166,257.586 C570.166,259.795 571.957,261.586 574.166,261.586 C576.375,261.586 578.166,259.795 578.166,257.586 "/>
<path vector-effect="none" fill-rule="evenodd" d="M578.356,267.836 C578.356,265.627 576.565,263.836 574.356,263.836 C572.147,263.836 570.356,265.627 570.356,267.836 C570.356,270.045 572.147,271.836 574.356,271.836 C576.565,271.836 578.356,270.045 578.356,267.836 "/>
<path vector-effect="none" fill-rule="evenodd" d="M578.545,278.717 C578.545,276.508 576.755,274.717 574.545,274.717 C572.336,274.717 570.545,276.508 570.545,278.717 C570.545,280.926 572.336,282.717 574.545,282.717 C576.755,282.717 578.545,280.926 578.545,278.717 "/>
<path vector-effect="none" fill-rule="evenodd" d="M578.735,290.082 C578.735,287.873 576.944,286.082 574.735,286.082 C572.526,286.082 570.735,287.873 570.735,290.082 C570.735,292.291 572.526,294.082 574.735,294.082 C576.944,294.082 578.735,292.291 578.735,290.082 "/>
<path vector-effect="none" fill-rule="evenodd" d="M578.925,301.799 C578.925,299.59 577.134,297.799 574.925,297.799 C572.716,297.799 570.925,299.59 570.925,301.799 C570.925,304.008 572.716,305.799 574.925,305.799 C577.134,305.799 578.925,304.008 578.925,301.799 "/>
<path vector-effect="none" fill-rule="evenodd" d="M579.115,313.755 C579.115,311.546 577.324,309.755 575.115,309.755 C572.906,309.755 571.115,311.546 571.115,313.755 C571.115,315.965 572.906,317.755 575.115,317.755 C577.324,317.755 579.115,315.965 579.115,313.755 "/>
<path vector-effect="none" fill-rule="evenodd" d="M579.304,325.854 C579.304,323.645 577.514,321.854 575.304,321.854 C573.095,321.854 571.304,323.645 571.304,325.854 C571.304,328.063 573.095,329.854 575.304,329.854 C577.514,329.854 579.304,328.063 579.304,325.854 "/>
<path vector-effect="none" fill-rule="evenodd" d="M579.494,338.014 C579.494,335.805 577.703,334.014 575.494,334.014 C573.285,334.014 571.494,335.805 571.494,338.014 C571.494,340.223 573.285,342.014 575.494,342.014 C577.703,342.014 579.494,340.223 579.494,338.014 "/>
<path vector-effect="none" fill-rule="evenodd" d="M579.684,350.169 C579.684,347.96 577.893,346.169 575.684,346.169 C573.475,346.169 571.684,347.96 571.684,350.169 C571.684,352.379 573.475,354.169 575.684,354.169 C577.893,354.169 579.684,352.379 579.684,350.169 "/>
<path vector-effect="none" fill-rule="evenodd" d="M579.874,362.266 C579.874,360.057 578.083,358.266 575.874,358.266 C573.664,358.266 571.874,360.057 571.874,362.266 C571.874,364.475 573.664,366.266 575.874,366.266 C578.083,366.266 579.874,364.475 579.874,362.266 "/>
<path vector-effect="none" fill-rule="evenodd" d="M580.063,374.261 C580.063,372.052 578.272,370.261 576.063,370.261 C573.854,370.261 572.063,372.052 572.063,374.261 C572.063,376.47 573.854,378.261 576.063,378.261 C578.272,378.261 580.063,376.47 580.063,374.261 "/>
<path vector-effect="none" fill-rule="evenodd" d="M580.253,386.121 C580.253,383.912 578.462,382.121 576.253,382.121 C574.044,382.121 572.253,383.912 572.253,386.121 C572.253,388.33 574.044,390.121 576.253,390.121 C578.462,390.121 580.253,388.33 580.253,386.121 "/>
<path vector-effect="none" fill-rule="evenodd" d="M580.443,397.82 C580.443,395.611 578.652,393.82 576.443,393.82 C574.233,393.82 572.443,395.611 572.443,397.82 C572.443,400.029 574.233,401.82 576.443,401.82 C578.652,401.82 580.443,400.029 580.443,397.82 "/>
<path vector-effect="none" fill-rule="evenodd" d="M580.632,409.338 C580.632,407.129 578.842,405.338 576.632,405.338 C574.423,405.338 572.632,407.129 572.632,409.338 C572.632,411.547 574.423,413.338 576.632,413.338 C578.842,413.338 580.632,411.547 580.632,409.338 "/>
<path vector-effect="none" fill-rule="evenodd" d="M580.822,420.661 C580.822,418.452 579.031,416.661 576.822,416.661 C574.613,416.661 572.822,418.452 572.822,420.661 C572.822,422.87 574.613,424.661 576.822,424.661 C579.031,424.661 580.822,422.87 580.822,420.661 "/>
<path vector-effect="none" fill-rule="evenodd" d="M581.012,431.778 C581.012,429.569 579.221,427.778 577.012,427.778 C574.803,427.778 573.012,429.569 573.012,431.778 C573.012,433.987 574.803,435.778 577.012,435.778 C579.221,435.778 581.012,433.987 581.012,431.778 "/>
<path vector-effect="none" fill-rule="evenodd" d="M581.202,442.684 C581.202,440.475 579.411,438.684 577.202,438.684 C574.992,438.684 573.202,440.475 573.202,442.684 C573.202,444.893 574.992,446.684 577.202,446.684 C579.411,446.684 581.202,444.893 581.202,442.684 "/>
<path vector-effect="none" fill-rule="evenodd" d="M581.391,453.374 C581.391,451.165 579.6,449.374 577.391,449.374 C575.182,449.374 573.391,451.165 573.391,453.374 C573.391,455.583 575.182,457.374 577.391,457.374 C579.6,457.374 581.391,455.583 581.391,453.374 "/>
<path vector-effect="none" fill-rule="evenodd" d="M581.581,463.847 C581.581,461.638 579.79,459.847 577.581,459.847 C575.372,459.847 573.581,461.638 573.581,463.847 C573.581,466.056 575.372,467.847 577.581,467.847 C579.79,467.847 581.581,466.056 581.581,463.847 "/>
<path vector-effect="none" fill-rule="evenodd" d="M581.771,474.103 C581.771,471.893 579.98,470.103 577.771,470.103 C575.562,470.103 573.771,471.893 573.771,474.103 C573.771,476.312 575.562,478.103 577.771,478.103 C579.98,478.103 581.771,476.312 581.771,474.103 "/>
<path vector-effect="none" fill-rule="evenodd" d="M581.96,484.143 C581.96,481.934 580.17,480.143 577.96,480.143 C575.751,480.143 573.96,481.934 573.96,484.143 C573.96,486.352 575.751,488.143 577.96,488.143 C580.17,488.143 581.96,486.352 581.96,484.143 "/>
<path vector-effect="none" fill-rule="evenodd" d="M582.15,493.97 C582.15,491.761 580.359,489.97 578.15,489.97 C575.941,489.97 574.15,491.761 574.15,493.97 C574.15,496.179 575.941,497.97 578.15,497.97 C580.359,497.97 582.15,496.179 582.15,493.97 "/>
<path vector-effect="none" fill-rule="evenodd" d="M582.34,503.587 C582.34,501.378 580.549,499.587 578.34,499.587 C576.131,499.587 574.34,501.378 574.34,503.587 C574.34,505.796 576.131,507.587 578.34,507.587 C580.549,507.587 582.34,505.796 582.34,503.587 "/>
<path vector-effect="none" fill-rule="evenodd" d="M582.53,512.999 C582.53,510.79 580.739,508.999 578.53,508.999 C576.32,508.999 574.53,510.79 574.53,512.999 C574.53,515.208 576.32,516.999 578.53,516.999 C580.739,516.999 582.53,515.208 582.53,512.999 "/>
<path vector-effect="none" fill-rule="evenodd" d="M582.719,522.21 C582.719,520.001 580.928,518.21 578.719,518.21 C576.51,518.21 574.719,520.001 574.719,522.21 C574.719,524.419 576.51,526.21 578.719,526.21 C580.928,526.21 582.719,524.419 582.719,522.21 "/>
<path vector-effect="none" fill-rule="evenodd" d="M582.909,531.224 C582.909,529.015 581.118,527.224 578.909,527.224 C576.7,527.224 574.909,529.015 574.909,531.224 C574.909,533.433 576.7,535.224 578.909,535.224 C581.118,535.224 582.909,533.433 582.909,531.224 "/>
<path vector-effect="none" fill-rule="evenodd" d="M583.099,540.047 C583.099,537.838 581.308,536.047 579.099,536.047 C576.89,536.047 575.099,537.838 575.099,540.047 C575.099,542.256 576.89,544.047 579.099,544.047 C581.308,544.047 583.099,542.256 583.099,540.047 "/>
<path vector-effect="none" fill-rule="evenodd" d="M583.288,548.683 C583.288,546.474 581.498,544.683 579.288,544.683 C577.079,544.683 575.288,546.474 575.288,548.683 C575.288,550.893 577.079,552.683 579.288,552.683 C581.498,552.683 583.288,550.893 583.288,548.683 "/>
<path vector-effect="none" fill-rule="evenodd" d="M583.478,557.139 C583.478,554.93 581.687,553.139 579.478,553.139 C577.269,553.139 575.478,554.93 575.478,557.139 C575.478,559.348 577.269,561.139 579.478,561.139 C581.687,561.139 583.478,559.348 583.478,557.139 "/>
<path vector-effect="none" fill-rule="evenodd" d="M583.668,565.418 C583.668,563.209 581.877,561.418 579.668,561.418 C577.459,561.418 575.668,563.209 575.668,565.418 C575.668,567.627 577.459,569.418 579.668,569.418 C581.877,569.418 583.668,567.627 583.668,565.418 "/>
<path vector-effect="none" fill-rule="evenodd" d="M583.858,573.526 C583.858,571.317 582.067,569.526 579.858,569.526 C577.648,569.526 575.858,571.317 575.858,573.526 C575.858,575.735 577.648,577.526 579.858,577.526 C582.067,577.526 583.858,575.735 583.858,573.526 "/>
<path vector-effect="none" fill-rule="evenodd" d="M584.047,581.468 C584.047,579.259 582.256,577.468 580.047,577.468 C577.838,577.468 576.047,579.259 576.047,581.468 C576.047,583.678 577.838,585.468 580.047,585.468 C582.256,585.468 584.047,583.678 584.047,581.468 "/>
<path vector-effect="none" fill-rule="evenodd" d="M690.099,87.4589 C690.099,85.2498 688.308,83.4589 686.099,83.4589 C683.89,83.4589 682.099,85.2498 682.099,87.4589 C682.099,89.668 683.89,91.4589 686.099,91.4589 C688.308,91.4589 690.099,89.668 690.099,87.4589 "/>
<path vector-effect="none" fill-rule="evenodd" d="M690.289,72.6948 C690.289,70.4857 688.498,68.6948 686.289,68.6948 C684.079,68.6948 682.289,70.4857 682.289,72.6948 C682.289,74.904 684.079,76.6948 686.289,76.6948 C688.498,76.6948 690.289,74.904 690.289,72.6948 "/>
<path vector-effect="none" fill-rule="evenodd" d="M690.478,60.9068 C690.478,58.6976 688.687,56.9068 686.478,56.9068 C684.269,56.9068 682.478,58.6976 682.478,60.9068 C682.478,63.1159 684.269,64.9068 686.478,64.9068 C688.687,64.9068 690.478,63.1159 690.478,60.9068 "/>
<path vector-effect="none" fill-rule="evenodd" d="M690.668,52.8195 C690.668,50.6103 688.877,48.8195 686.668,48.8195 C684.459,48.8195 682.668,50.6103 682.668,52.8195 C682.668,55.0286 684.459,56.8195 686.668,56.8195 C688.877,56.8195 690.668,55.0286 690.668,52.8195 "/>
<path vector-effect="none" fill-rule="evenodd" d="M690.858,49.0001 C690.858,46.7909 689.067,45.0001 686.858,45.0001 C684.649,45.0001 682.858,46.7909 682.858,49.0001 C682.858,51.2092 684.649,53.0001 686.858,53.0001 C689.067,53.0001 690.858,51.2092 690.858,49.0001 "/>
<path vector-effect="none" fill-rule="evenodd" d="M691.048,49.7376 C691.048,47.5285 689.257,45.7376 687.048,45.7376 C684.838,45.7376 683.048,47.5285 683.048,49.7376 C683.048,51.9468 684.838,53.7376 687.048,53.7376 C689.257,53.7376 691.048,51.9468 691.048,49.7376 "/>
<path vector-effect="none" fill-rule="evenodd" d="M691.237,54.9757 C691.237,52.7666 689.446,50.9757 687.237,50.9757 C685.028,50.9757 683.237,52.7666 683.237,54.9757 C683.237,57.1849 685.028,58.9757 687.237,58.9757 C689.446,58.9757 691.237,57.1849 691.237,54.9757 "/>
<path vector-effect="none" fill-rule="evenodd" d="M691.427,64.3252 C691.427,62.116 689.636,60.3252 687.427,60.3252 C685.218,60.3252 683.427,62.116 683.427,64.3252 C683.427,66.5343 685.218,68.3252 687.427,68.3252 C689.636,68.3252 691.427,66.5343 691.427,64.3252 "/>
<path vector-effect="none" fill-rule="evenodd" d="M691.617,77.1541 C691.617,74.945 689.826,73.1541 687.617,73.1541 C685.408,73.1541 683.617,74.945 683.617,77.1541 C683.617,79.3632 685.408,81.1541 687.617,81.1541 C689.826,81.1541 691.617,79.3632 691.617,77.1541 "/>
<path vector-effect="none" fill-rule="evenodd" d="M691.807,92.7147 C691.807,90.5055 690.016,88.7147 687.807,88.7147 C685.597,88.7147 683.807,90.5055 683.807,92.7147 C683.807,94.9238 685.597,96.7147 687.807,96.7147 C690.016,96.7147 691.807,94.9238 691.807,92.7147 "/>
<path vector-effect="none" fill-rule="evenodd" d="M691.996,110.258 C691.996,108.049 690.205,106.258 687.996,106.258 C685.787,106.258 683.996,108.049 683.996,110.258 C683.996,112.467 685.787,114.258 687.996,114.258 C690.205,114.258 691.996,112.467 691.996,110.258 "/>
<path vector-effect="none" fill-rule="evenodd" d="M692.186,129.115 C692.186,126.906 690.395,125.115 688.186,125.115 C685.977,125.115 684.186,126.906 684.186,129.115 C684.186,131.324 685.977,133.115 688.186,133.115 C690.395,133.115 692.186,131.324 692.186,129.115 "/>
<path vector-effect="none" fill-rule="evenodd" d="M692.375,148.731 C692.375,146.522 690.585,144.731 688.375,144.731 C686.166,144.731 684.375,146.522 684.375,148.731 C684.375,150.941 686.166,152.731 688.375,152.731 C690.585,152.731 692.375,150.941 692.375,148.731 "/>
<path vector-effect="none" fill-rule="evenodd" d="M692.565,168.678 C692.565,166.468 690.774,164.678 688.565,164.678 C686.356,164.678 684.565,166.468 684.565,168.678 C684.565,170.887 686.356,172.678 688.565,172.678 C690.774,172.678 692.565,170.887 692.565,168.678 "/>
<path vector-effect="none" fill-rule="evenodd" d="M692.755,188.635 C692.755,186.426 690.964,184.635 688.755,184.635 C686.546,184.635 684.755,186.426 684.755,188.635 C684.755,190.844 686.546,192.635 688.755,192.635 C690.964,192.635 692.755,190.844 692.755,188.635 "/>
<path vector-effect="none" fill-rule="evenodd" d="M692.945,208.376 C692.945,206.166 691.154,204.376 688.945,204.376 C686.736,204.376 684.945,206.166 684.945,208.376 C684.945,210.585 686.736,212.376 688.945,212.376 C691.154,212.376 692.945,210.585 692.945,208.376 "/>
<path vector-effect="none" fill-rule="evenodd" d="M693.134,227.746 C693.134,225.537 691.344,223.746 689.134,223.746 C686.925,223.746 685.134,225.537 685.134,227.746 C685.134,229.955 686.925,231.746 689.134,231.746 C691.344,231.746 693.134,229.955 693.134,227.746 "/>
<path vector-effect="none" fill-rule="evenodd" d="M693.324,246.645 C693.324,244.436 691.533,242.645 689.324,242.645 C687.115,242.645 685.324,244.436 685.324,246.645 C685.324,248.854 687.115,250.645 689.324,250.645 C691.533,250.645 693.324,248.854 693.324,246.645 "/>
<path vector-effect="none" fill-rule="evenodd" d="M693.514,265.011 C693.514,262.802 691.723,261.011 689.514,261.011 C687.305,261.011 685.514,262.802 685.514,265.011 C685.514,267.221 687.305,269.011 689.514,269.011 C691.723,269.011 693.514,267.221 693.514,265.011 "/>
<path vector-effect="none" fill-rule="evenodd" d="M693.704,282.814 C693.704,280.604 691.913,278.814 689.704,278.814 C687.495,278.814 685.704,280.604 685.704,282.814 C685.704,285.023 687.495,286.814 689.704,286.814 C691.913,286.814 693.704,285.023 693.704,282.814 "/>
<path vector-effect="none" fill-rule="evenodd" d="M693.893,300.038 C693.893,297.829 692.103,296.038 689.893,296.038 C687.684,296.038 685.893,297.829 685.893,300.038 C685.893,302.247 687.684,304.038 689.893,304.038 C692.103,304.038 693.893,302.247 693.893,300.038 "/>
<path vector-effect="none" fill-rule="evenodd" d="M694.083,316.685 C694.083,314.476 692.292,312.685 690.083,312.685 C687.874,312.685 686.083,314.476 686.083,316.685 C686.083,318.894 687.874,320.685 690.083,320.685 C692.292,320.685 694.083,318.894 694.083,316.685 "/>
<path vector-effect="none" fill-rule="evenodd" d="M694.273,332.766 C694.273,330.557 692.482,328.766 690.273,328.766 C688.064,328.766 686.273,330.557 686.273,332.766 C686.273,334.975 688.064,336.766 690.273,336.766 C692.482,336.766 694.273,334.975 694.273,332.766 "/>
<path vector-effect="none" fill-rule="evenodd" d="M694.462,348.295 C694.462,346.086 692.672,344.295 690.462,344.295 C688.253,344.295 686.462,346.086 686.462,348.295 C686.462,350.504 688.253,352.295 690.462,352.295 C692.672,352.295 694.462,350.504 694.462,348.295 "/>
<path vector-effect="none" fill-rule="evenodd" d="M694.652,363.293 C694.652,361.084 692.861,359.293 690.652,359.293 C688.443,359.293 686.652,361.084 686.652,363.293 C686.652,365.502 688.443,367.293 690.652,367.293 C692.861,367.293 694.652,365.502 694.652,363.293 "/>
<path vector-effect="none" fill-rule="evenodd" d="M694.842,377.781 C694.842,375.571 693.051,373.781 690.842,373.781 C688.633,373.781 686.842,375.571 686.842,377.781 C686.842,379.99 688.633,381.781 690.842,381.781 C693.051,381.781 694.842,379.99 694.842,377.781 "/>
<path vector-effect="none" fill-rule="evenodd" d="M695.032,391.781 C695.032,389.572 693.241,387.781 691.032,387.781 C688.822,387.781 687.032,389.572 687.032,391.781 C687.032,393.99 688.822,395.781 691.032,395.781 C693.241,395.781 695.032,393.99 695.032,391.781 "/>
<path vector-effect="none" fill-rule="evenodd" d="M695.221,405.316 C695.221,403.107 693.431,401.316 691.221,401.316 C689.012,401.316 687.221,403.107 687.221,405.316 C687.221,407.525 689.012,409.316 691.221,409.316 C693.431,409.316 695.221,407.525 695.221,405.316 "/>
<path vector-effect="none" fill-rule="evenodd" d="M695.411,418.408 C695.411,416.199 693.62,414.408 691.411,414.408 C689.202,414.408 687.411,416.199 687.411,418.408 C687.411,420.617 689.202,422.408 691.411,422.408 C693.62,422.408 695.411,420.617 695.411,418.408 "/>
<path vector-effect="none" fill-rule="evenodd" d="M695.601,431.08 C695.601,428.871 693.81,427.08 691.601,427.08 C689.392,427.08 687.601,428.871 687.601,431.08 C687.601,433.289 689.392,435.08 691.601,435.08 C693.81,435.08 695.601,433.289 695.601,431.08 "/>
<path vector-effect="none" fill-rule="evenodd" d="M695.791,443.352 C695.791,441.143 694,439.352 691.791,439.352 C689.581,439.352 687.791,441.143 687.791,443.352 C687.791,445.561 689.581,447.352 691.791,447.352 C694,447.352 695.791,445.561 695.791,443.352 "/>
<path vector-effect="none" fill-rule="evenodd" d="M695.98,455.245 C695.98,453.036 694.189,451.245 691.98,451.245 C689.771,451.245 687.98,453.036 687.98,455.245 C687.98,457.454 689.771,459.245 691.98,459.245 C694.189,459.245 695.98,457.454 695.98,455.245 "/>
<path vector-effect="none" fill-rule="evenodd" d="M696.17,466.776 C696.17,464.567 694.379,462.776 692.17,462.776 C689.961,462.776 688.17,464.567 688.17,466.776 C688.17,468.985 689.961,470.776 692.17,470.776 C694.379,470.776 696.17,468.985 696.17,466.776 "/>
<path vector-effect="none" fill-rule="evenodd" d="M696.36,477.965 C696.36,475.756 694.569,473.965 692.36,473.965 C690.15,473.965 688.36,475.756 688.36,477.965 C688.36,480.174 690.15,481.965 692.36,481.965 C694.569,481.965 696.36,480.174 696.36,477.965 "/>
<path vector-effect="none" fill-rule="evenodd" d="M696.549,488.828 C696.549,486.619 694.758,484.828 692.549,484.828 C690.34,484.828 688.549,486.619 688.549,488.828 C688.549,491.037 690.34,492.828 692.549,492.828 C694.758,492.828 696.549,491.037 696.549,488.828 "/>
<path vector-effect="none" fill-rule="evenodd" d="M696.739,499.381 C696.739,497.172 694.948,495.381 692.739,495.381 C690.53,495.381 688.739,497.172 688.739,499.381 C688.739,501.59 690.53,503.381 692.739,503.381 C694.948,503.381 696.739,501.59 696.739,499.381 "/>
<path vector-effect="none" fill-rule="evenodd" d="M696.929,509.64 C696.929,507.43 695.138,505.64 692.929,505.64 C690.72,505.64 688.929,507.43 688.929,509.64 C688.929,511.849 690.72,513.64 692.929,513.64 C695.138,513.64 696.929,511.849 696.929,509.64 "/>
<path vector-effect="none" fill-rule="evenodd" d="M697.119,519.617 C697.119,517.408 695.328,515.617 693.119,515.617 C690.909,515.617 689.119,517.408 689.119,519.617 C689.119,521.826 690.909,523.617 693.119,523.617 C695.328,523.617 697.119,521.826 697.119,519.617 "/>
<path vector-effect="none" fill-rule="evenodd" d="M697.308,529.327 C697.308,527.118 695.517,525.327 693.308,525.327 C691.099,525.327 689.308,527.118 689.308,529.327 C689.308,531.536 691.099,533.327 693.308,533.327 C695.517,533.327 697.308,531.536 697.308,529.327 "/>
<path vector-effect="none" fill-rule="evenodd" d="M697.498,538.782 C697.498,536.573 695.707,534.782 693.498,534.782 C691.289,534.782 689.498,536.573 689.498,538.782 C689.498,540.991 691.289,542.782 693.498,542.782 C695.707,542.782 697.498,540.991 697.498,538.782 "/>
<path vector-effect="none" fill-rule="evenodd" d="M697.688,547.994 C697.688,545.784 695.897,543.994 693.688,543.994 C691.479,543.994 689.688,545.784 689.688,547.994 C689.688,550.203 691.479,551.994 693.688,551.994 C695.897,551.994 697.688,550.203 697.688,547.994 "/>
<path vector-effect="none" fill-rule="evenodd" d="M697.877,556.973 C697.877,554.763 696.087,552.973 693.877,552.973 C691.668,552.973 689.877,554.763 689.877,556.973 C689.877,559.182 691.668,560.973 693.877,560.973 C696.087,560.973 697.877,559.182 697.877,556.973 "/>
<path vector-effect="none" fill-rule="evenodd" d="M698.067,565.729 C698.067,563.52 696.276,561.729 694.067,561.729 C691.858,561.729 690.067,563.52 690.067,565.729 C690.067,567.938 691.858,569.729 694.067,569.729 C696.276,569.729 698.067,567.938 698.067,565.729 "/>
<path vector-effect="none" fill-rule="evenodd" d="M698.257,574.273 C698.257,572.064 696.466,570.273 694.257,570.273 C692.048,570.273 690.257,572.064 690.257,574.273 C690.257,576.483 692.048,578.273 694.257,578.273 C696.466,578.273 698.257,576.483 698.257,574.273 "/>
<path vector-effect="none" fill-rule="evenodd" d="M806.964,415.567 C806.964,413.358 805.174,411.567 802.964,411.567 C800.755,411.567 798.964,413.358 798.964,415.567 C798.964,417.777 800.755,419.567 802.964,419.567 C805.174,419.567 806.964,417.777 806.964,415.567 "/>
<path vector-effect="none" fill-rule="evenodd" d="M807.154,424.259 C807.154,422.05 805.363,420.259 803.154,420.259 C800.945,420.259 799.154,422.05 799.154,424.259 C799.154,426.468 800.945,428.259 803.154,428.259 C805.363,428.259 807.154,426.468 807.154,424.259 "/>
<path vector-effect="none" fill-rule="evenodd" d="M807.344,433.035 C807.344,430.826 805.553,429.035 803.344,429.035 C801.135,429.035 799.344,430.826 799.344,433.035 C799.344,435.244 801.135,437.035 803.344,437.035 C805.553,437.035 807.344,435.244 807.344,433.035 "/>
<path vector-effect="none" fill-rule="evenodd" d="M807.534,441.863 C807.534,439.654 805.743,437.863 803.534,437.863 C801.325,437.863 799.534,439.654 799.534,441.863 C799.534,444.072 801.325,445.863 803.534,445.863 C805.743,445.863 807.534,444.072 807.534,441.863 "/>
<path vector-effect="none" fill-rule="evenodd" d="M807.723,450.713 C807.723,448.504 805.933,446.713 803.723,446.713 C801.514,446.713 799.723,448.504 799.723,450.713 C799.723,452.922 801.514,454.713 803.723,454.713 C805.933,454.713 807.723,452.922 807.723,450.713 "/>
<path vector-effect="none" fill-rule="evenodd" d="M807.913,459.559 C807.913,457.35 806.122,455.559 803.913,455.559 C801.704,455.559 799.913,457.35 799.913,459.559 C799.913,461.768 801.704,463.559 803.913,463.559 C806.122,463.559 807.913,461.768 807.913,459.559 "/>
<path vector-effect="none" fill-rule="evenodd" d="M808.103,468.381 C808.103,466.172 806.312,464.381 804.103,464.381 C801.894,464.381 800.103,466.172 800.103,468.381 C800.103,470.59 801.894,472.381 804.103,472.381 C806.312,472.381 808.103,470.59 808.103,468.381 "/>
<path vector-effect="none" fill-rule="evenodd" d="M808.293,477.159 C808.293,474.949 806.502,473.159 804.293,473.159 C802.084,473.159 800.293,474.949 800.293,477.159 C800.293,479.368 802.084,481.159 804.293,481.159 C806.502,481.159 808.293,479.368 808.293,477.159 "/>
<path vector-effect="none" fill-rule="evenodd" d="M808.482,485.877 C808.482,483.668 806.691,481.877 804.482,481.877 C802.273,481.877 800.482,483.668 800.482,485.877 C800.482,488.086 802.273,489.877 804.482,489.877 C806.691,489.877 808.482,488.086 808.482,485.877 "/>
<path vector-effect="none" fill-rule="evenodd" d="M808.672,494.524 C808.672,492.315 806.881,490.524 804.672,490.524 C802.463,490.524 800.672,492.315 800.672,494.524 C800.672,496.733 802.463,498.524 804.672,498.524 C806.881,498.524 808.672,496.733 808.672,494.524 "/>
<path vector-effect="none" fill-rule="evenodd" d="M808.862,503.088 C808.862,500.878 807.071,499.088 804.862,499.088 C802.652,499.088 800.862,500.878 800.862,503.088 C800.862,505.297 802.652,507.088 804.862,507.088 C807.071,507.088 808.862,505.297 808.862,503.088 "/>
<path vector-effect="none" fill-rule="evenodd" d="M809.051,511.559 C809.051,509.35 807.261,507.559 805.051,507.559 C802.842,507.559 801.051,509.35 801.051,511.559 C801.051,513.769 802.842,515.559 805.051,515.559 C807.261,515.559 809.051,513.769 809.051,511.559 "/>
<path vector-effect="none" fill-rule="evenodd" d="M809.241,519.932 C809.241,517.723 807.45,515.932 805.241,515.932 C803.032,515.932 801.241,517.723 801.241,519.932 C801.241,522.142 803.032,523.932 805.241,523.932 C807.45,523.932 809.241,522.142 809.241,519.932 "/>
<path vector-effect="none" fill-rule="evenodd" d="M809.431,528.201 C809.431,525.992 807.64,524.201 805.431,524.201 C803.222,524.201 801.431,525.992 801.431,528.201 C801.431,530.41 803.222,532.201 805.431,532.201 C807.64,532.201 809.431,530.41 809.431,528.201 "/>
<path vector-effect="none" fill-rule="evenodd" d="M809.621,536.36 C809.621,534.151 807.83,532.36 805.621,532.36 C803.411,532.36 801.621,534.151 801.621,536.36 C801.621,538.569 803.411,540.36 805.621,540.36 C807.83,540.36 809.621,538.569 809.621,536.36 "/>
<path vector-effect="none" fill-rule="evenodd" d="M809.81,544.407 C809.81,542.198 808.019,540.407 805.81,540.407 C803.601,540.407 801.81,542.198 801.81,544.407 C801.81,546.616 803.601,548.407 805.81,548.407 C808.019,548.407 809.81,546.616 809.81,544.407 "/>
<path vector-effect="none" fill-rule="evenodd" d="M810,552.34 C810,550.13 808.209,548.34 806,548.34 C803.791,548.34 802,550.13 802,552.34 C802,554.549 803.791,556.34 806,556.34 C808.209,556.34 810,554.549 810,552.34 "/>
</g>

<g fill="none" stroke="#dd5400" stroke-opacity="1" stroke-width="2" stroke-linecap="butt" stroke-linejoin="round" transform="matrix(0.75,0,0,0.749162,-52.5,-17.229)"
font-family="Helvetica" font-size="14" font-weight="700" font-style="normal" 
>
<polyline fill="none" vector-effect="none" points="116,584 116.19,582.374 116.379,580.935 116.569,579.688 116.759,578.639 116.949,577.79 117.138,577.145 117.328,576.707 117.518,576.476 117.707,576.455 117.897,576.642 118.087,577.038 118.277,577.64 118.466,578.448 118.656,579.457 118.846,580.665 119.035,582.067 119.225,583.659 " />
<polyline fill="none" vector-effect="none" points="224.897,526.381 225.087,518.305 225.277,510.144 225.467,501.904 225.656,493.596 225.846,485.229 226.036,476.817 226.225,468.374 226.415,459.918 226.605,451.471 226.795,443.055 226.984,434.698 227.174,426.431 227.364,418.289 227.554,410.31 227.743,402.538 227.933,395.02 228.123,387.807 228.312,380.953 228.502,374.516 228.692,368.555 228.881,363.13 229.071,358.298 229.261,354.117 229.451,350.637 229.64,347.904 229.83,345.955 230.02,344.818 230.21,344.507 230.399,345.029 230.589,346.376 230.779,348.528 230.968,351.456 231.158,355.12 231.348,359.475 231.538,364.465 231.727,370.036 231.917,376.128 232.107,382.681 232.296,389.637 232.486,396.938 232.676,404.532 232.866,412.368 233.055,420.4 233.245,428.586 233.435,436.887 233.624,445.271 233.814,453.706 234.004,462.167 234.194,470.63 234.383,479.077 234.573,487.489 234.763,495.852 234.952,504.154 235.142,512.385 235.332,520.535 235.522,528.599 235.711,536.57 235.901,544.443 236.091,552.216 236.28,559.886 236.47,567.45 236.66,574.907 236.85,582.257 " />
<polyline fill="none" vector-effect="none" points="343.091,94.8004 343.281,83.7281 343.47,75.861 343.66,71.678 343.85,71.4545 344.04,75.2057 344.229,82.6829 344.419,93.426 344.609,106.848 344.798,122.328 344.988,139.276 345.178,157.182 345.368,175.628 345.557,194.287 345.747,212.916 345.937,231.339 346.126,249.434 346.316,267.118 346.506,284.34 346.696,301.072 346.885,317.3 347.075,333.023 347.265,348.246 347.454,362.981 347.644,377.242 347.834,391.047 348.024,404.414 348.213,417.36 348.403,429.905 348.593,442.067 348.782,453.863 348.972,465.31 349.162,476.426 349.352,487.224 349.541,497.721 349.731,507.929 349.921,517.863 350.111,527.535 350.3,536.956 350.49,546.138 350.68,555.091 350.869,563.825 351.059,572.349 " />
<polyline fill="none" vector-effect="none" points="459.198,136.896 459.387,152.784 459.577,169.611 459.767,187.003 459.957,204.663 460.146,222.362 460.336,239.93 460.526,257.245 460.715,274.223 460.905,290.808 461.095,306.964 461.285,322.673 461.474,337.928 461.664,352.728 461.854,367.08 462.043,380.995 462.233,394.485 462.423,407.564 462.613,420.249 462.802,432.555 462.992,444.497 463.182,456.092 463.371,467.354 463.561,478.298 463.751,488.939 463.941,499.289 464.13,509.362 464.32,519.17 464.51,528.724 464.699,538.036 464.889,547.115 465.079,555.972 465.269,564.617 " />
<polyline fill="none" vector-effect="none" points="572.459,71.8059 572.648,67.7205 572.838,67.659 573.028,71.6257 573.218,79.3548 573.407,90.3663 573.597,104.056 573.787,119.788 573.976,136.966 574.166,155.074 574.356,173.695 574.545,192.504 574.735,211.259 574.925,229.789 575.115,247.972 575.304,265.73 575.494,283.015 575.684,299.799 575.874,316.071 576.063,331.83 576.253,347.084 576.443,361.845 576.632,376.129 576.822,389.953 577.012,403.335 577.202,416.296 577.391,428.853 577.581,441.025 577.771,452.83 577.96,464.285 578.15,475.407 578.34,486.211 578.53,496.713 578.719,506.927 578.909,516.865 579.099,526.541 579.288,535.965 579.478,545.15 579.668,554.106 579.858,562.843 580.047,571.37 " />
<polyline fill="none" vector-effect="none" points="686.099,164.028 686.289,154.85 686.478,147.773 686.668,143.081 686.858,140.979 687.048,141.56 687.237,144.799 687.427,150.551 687.617,158.573 687.807,168.557 687.996,180.164 688.186,193.051 688.375,206.9 688.565,221.429 688.755,236.395 688.945,251.601 689.134,266.888 689.324,282.131 689.514,297.237 689.704,312.135 689.893,326.775 690.083,341.121 690.273,355.15 690.462,368.847 690.652,382.206 690.842,395.223 691.032,407.902 691.221,420.247 691.411,432.265 691.601,443.964 691.791,455.353 691.98,466.442 692.17,477.241 692.36,487.76 692.549,498.01 692.739,508.001 692.929,517.741 693.119,527.242 693.308,536.511 693.498,545.558 693.688,554.392 693.877,563.02 694.067,571.451 694.257,579.691 " />
<polyline fill="none" vector-effect="none" points="802.964,475.073 803.154,480.849 803.344,486.799 803.534,492.897 803.723,499.121 803.913,505.451 804.103,511.866 804.293,518.349 804.482,524.884 804.672,531.455 804.862,538.048 805.051,544.653 805.241,551.257 805.431,557.851 805.621,564.427 805.81,570.977 806,577.493 " />
</g>

<g fill="#ffffff" fill-opacity="1" stroke="none" transform="matrix(7.5e-05,0,0,7.49162e-05,-52.5,-17.229)"
font-family="Helvetica" font-size="14" font-weight="700" font-style="normal" 
>
<path vector-effect="none" fill-rule="evenodd" d="M7.08e+06,600000 L7.08e+06,920000 L7.95e+06,920000 L7.95e+06,600000 L7.08e+06,600000"/>
</g>

<g fill="#1171be" fill-opacity="1" stroke="#1171be" stroke-opacity="1" stroke-width="2" stroke-linecap="butt" stroke-linejoin="round" transform="matrix(0.75,0,0,0.749162,-52.5,-17.229)"
font-family="Helvetica" font-size="14" font-weight="700" font-style="normal" 
>
<polyline fill="none" vector-effect="none" points="712,68.8615 752,68.8615 " />
</g>

<g fill="none" stroke="#1171be" stroke-opacity="1" stroke-width="2" stroke-linecap="butt" stroke-linejoin="miter" stroke-miterlimit="2" transform="matrix(0.75,0,0,0.749162,-52.5,-17.229)"
font-family="Helvetica" font-size="14" font-weight="700" font-style="normal" 
>
<path vector-effect="none" fill-rule="evenodd" d="M736,68.8615 C736,66.6524 734.209,64.8615 732,64.8615 C729.791,64.8615 728,66.6524 728,68.8615 C728,71.0707 729.791,72.8615 732,72.8615 C734.209,72.8615 736,71.0707 736,68.8615 "/>
</g>

<g fill="#dd5400" fill-opacity="1" stroke="#dd5400" stroke-opacity="1" stroke-width="2" stroke-linecap="butt" stroke-linejoin="round" transform="matrix(0.75,0,0,0.749162,-52.5,-17.229)"
font-family="Helvetica" font-size="14" font-weight="700" font-style="normal" 
>
<polyline fill="none" vector-effect="none" points="712,83.1385 752,83.1385 " />
</g>

<g fill="#212121" fill-opacity="1" stroke="#212121" stroke-opacity="1" stroke-width="1" stroke-linecap="square" stroke-linejoin="bevel" transform="matrix(0.75,0,0,0.749162,513.75,37.356)"
font-family="Helvetica" font-size="12" font-weight="400" font-style="normal" 
>
<text fill="#212121" fill-opacity="1" stroke="none" xml:space="preserve" x="0" y="0" font-family="Helvetica" font-size="12" font-weight="400" font-style="normal" 
 >Path 1</text>
</g>

<g fill="#212121" fill-opacity="1" stroke="#212121" stroke-opacity="1" stroke-width="1" stroke-linecap="square" stroke-linejoin="bevel" transform="matrix(0.75,0,0,0.749162,513.75,48.0518)"
font-family="Helvetica" font-size="12" font-weight="400" font-style="normal" 
>
<text fill="#212121" fill-opacity="1" stroke="none" xml:space="preserve" x="0" y="0" font-family="Helvetica" font-size="12" font-weight="400" font-style="normal" 
 >Path 2</text>
</g>

<g fill="none" stroke="#212121" stroke-opacity="1" stroke-width="0.666667" stroke-linecap="butt" stroke-linejoin="miter" stroke-miterlimit="2" transform="matrix(0.75,0,0,0.749162,-52.5,-17.229)"
font-family="Helvetica" font-size="12" font-weight="400" font-style="normal" 
>
<path vector-effect="none" fill-rule="evenodd" d="M708,92 L708,60 L795,60 L795,92 L708,92"/>
</g>
</g>
</svg>
