<?xml version="1.0" encoding="UTF-8" standalone="no"?>
<svg width="195.792mm" height="158.75mm"
 viewBox="0 0 555 450"
 xmlns="http://www.w3.org/2000/svg" xmlns:xlink="http://www.w3.org/1999/xlink"  version="1.2" baseProfile="tiny">
<title>Qt SVG Document</title>
<desc>MATLAB, The MathWorks, Inc. Version 25.2.0.2998904 R2025b</desc>
<defs>
</defs>
<g fill="none" stroke="black" stroke-width="1" fill-rule="evenodd" stroke-linecap="square" stroke-linejoin="bevel" >

<g fill="#ffffff" fill-opacity="1" stroke="none" transform="matrix(0.75,0,0,0.749162,-52.5,-17.2291)"
font-family="MS Shell Dlg 2" font-size="8.25" font-weight="400" font-style="normal" 
>
<path vector-effect="none" fill-rule="evenodd" d="M69,22 L810,22 L810,624 L69,624 L69,22"/>
</g>

<g fill="#ffffff" fill-opacity="1" stroke="none" transform="matrix(7.5e-05,0,0,7.49162e-05,-52.5,-17.2291)"
font-family="MS Shell Dlg 2" font-size="8.25" font-weight="400" font-style="normal" 
>
<path vector-effect="none" fill-rule="evenodd" d="M1.16e+06,490000 L1.16e+06,5.84e+06 L8.06e+06,5.84e+06 L8.06e+06,490000 L1.16e+06,490000"/>
</g>

<g fill="#212121" fill-opacity="0.14902" stroke="#212121" stroke-opacity="0.14902" stroke-width="0.666667" stroke-linecap="butt" stroke-linejoin="round" transform="matrix(0.75,0,0,0.749162,-52.5,-17.2291)"
font-family="MS Shell Dlg 2" font-size="8.25" font-weight="400" font-style="normal" 
>
<polyline fill="none" vector-effect="none" points="182.78,49.0001 182.78,584 " />
<polyline fill="none" vector-effect="none" points="319.376,49.0001 319.376,584 " />
<polyline fill="none" vector-effect="none" points="455.973,49.0001 455.973,584 " />
<polyline fill="none" vector-effect="none" points="592.569,49.0001 592.569,584 " />
<polyline fill="none" vector-effect="none" points="729.165,49.0001 729.165,584 " />
<polyline fill="none" vector-effect="none" points="116,507.474 806,507.474 " />
<polyline fill="none" vector-effect="none" points="116,427.503 806,427.503 " />
<polyline fill="none" vector-effect="none" points="116,347.532 806,347.532 " />
<polyline fill="none" vector-effect="none" points="116,267.561 806,267.561 " />
<polyline fill="none" vector-effect="none" points="116,187.59 806,187.59 " />
<polyline fill="none" vector-effect="none" points="116,107.619 806,107.619 " />
</g>

<g fill="#212121" fill-opacity="1" stroke="#212121" stroke-opacity="1" stroke-width="0.666667" stroke-linecap="square" stroke-linejoin="round" transform="matrix(0.75,0,0,0.749162,-52.5,-17.2291)"
font-family="MS Shell Dlg 2" font-size="8.25" font-weight="400" font-style="normal" 
>
<polyline fill="none" vector-effect="none" points="116,584 806,584 " />
<polyline fill="none" vector-effect="none" points="116,49.0001 806,49.0001 " />
<polyline fill="none" vector-effect="none" points="182.78,584 182.78,577.1 " />
<polyline fill="none" vector-effect="none" points="319.376,584 319.376,577.1 " />
<polyline fill="none" vector-effect="none" points="455.973,584 455.973,577.1 " />
<polyline fill="none" vector-effect="none" points="592.569,584 592.569,577.1 " />
<polyline fill="none" vector-effect="none" points="729.165,584 729.165,577.1 " />
<polyline fill="none" vector-effect="none" points="182.78,49.0001 182.78,55.9 " />
<polyline fill="none" vector-effect="none" points="319.376,49.0001 319.376,55.9 " />
<polyline fill="none" vector-effect="none" points="455.973,49.0001 455.973,55.9 " />
<polyline fill="none" vector-effect="none" points="592.569,49.0001 592.569,55.9 " />
<polyline fill="none" vector-effect="none" points="729.165,49.0001 729.165,55.9 " />
</g>

<g fill="#212121" fill-opacity="1" stroke="#212121" stroke-opacity="1" stroke-width="1" stroke-linecap="square" stroke-linejoin="bevel" transform="matrix(0.75,0,0,0.749162,55.3352,433.267)"
font-family="Helvetica" font-size="13" font-weight="400" font-style="normal" 
>
<text fill="#212121" fill-opacity="1" stroke="none" xml:space="preserve" x="0" y="0" font-family="Helvetica" font-size="13" font-weight="400" font-style="normal" 
 >Jan 11, 18:00</text>
</g>

<g fill="#212121" fill-opacity="1" stroke="#212121" stroke-opacity="1" stroke-width="1" stroke-linecap="square" stroke-linejoin="bevel" transform="matrix(0.75,0,0,0.749162,157.782,433.267)"
font-family="Helvetica" font-size="13" font-weight="400" font-style="normal" 
>
<text fill="#212121" fill-opacity="1" stroke="none" xml:space="preserve" x="0" y="0" font-family="Helvetica" font-size="13" font-weight="400" font-style="normal" 
 >Jan 11, 20:00</text>
</g>

<g fill="#212121" fill-opacity="1" stroke="#212121" stroke-opacity="1" stroke-width="1" stroke-linecap="square" stroke-linejoin="bevel" transform="matrix(0.75,0,0,0.749162,260.229,433.267)"
font-family="Helvetica" font-size="13" font-weight="400" font-style="normal" 
>
<text fill="#212121" fill-opacity="1" stroke="none" xml:space="preserve" x="0" y="0" font-family="Helvetica" font-size="13" font-weight="400" font-style="normal" 
 >Jan 11, 22:00</text>
</g>

<g fill="#212121" fill-opacity="1" stroke="#212121" stroke-opacity="1" stroke-width="1" stroke-linecap="square" stroke-linejoin="bevel" transform="matrix(0.75,0,0,0.749162,362.301,433.267)"
font-family="Helvetica" font-size="13" font-weight="400" font-style="normal" 
>
<text fill="#212121" fill-opacity="1" stroke="none" xml:space="preserve" x="0" y="0" font-family="Helvetica" font-size="13" font-weight="400" font-style="normal" 
 >Jan 12, 00:00</text>
</g>

<g fill="#212121" fill-opacity="1" stroke="#212121" stroke-opacity="1" stroke-width="1" stroke-linecap="square" stroke-linejoin="bevel" transform="matrix(0.75,0,0,0.749162,464.749,433.267)"
font-family="Helvetica" font-size="13" font-weight="400" font-style="normal" 
>
<text fill="#212121" fill-opacity="1" stroke="none" xml:space="preserve" x="0" y="0" font-family="Helvetica" font-size="13" font-weight="400" font-style="normal" 
 >Jan 12, 02:00</text>
</g>

<g fill="#212121" fill-opacity="1" stroke="#212121" stroke-opacity="1" stroke-width="1" stroke-linecap="square" stroke-linejoin="bevel" transform="matrix(0.75,0,0,0.749162,229.5,446.253)"
font-family="Helvetica" font-size="14" font-weight="400" font-style="normal" 
>
<text fill="#212121" fill-opacity="1" stroke="none" xml:space="preserve" x="0" y="0" font-family="Helvetica" font-size="14" font-weight="400" font-style="normal" 
 >Simulation Time (datetime)</text>
</g>

<g fill="#212121" fill-opacity="1" stroke="#212121" stroke-opacity="1" stroke-width="1" stroke-linecap="square" stroke-linejoin="bevel" transform="matrix(0.75,0,0,0.749162,522,445.503)"
font-family="Helvetica" font-size="13" font-weight="400" font-style="normal" 
>
<text fill="#212121" fill-opacity="1" stroke="none" xml:space="preserve" x="0" y="0" font-family="Helvetica" font-size="13" font-weight="400" font-style="normal" 
 >2020   </text>
</g>

<g fill="#212121" fill-opacity="1" stroke="#212121" stroke-opacity="1" stroke-width="1" stroke-linecap="square" stroke-linejoin="bevel" transform="matrix(0,-0.749162,0.75,0,9,244.229)"
font-family="Helvetica" font-size="14" font-weight="400" font-style="normal" 
>
<text fill="#212121" fill-opacity="1" stroke="none" xml:space="preserve" x="0" y="0" font-family="Helvetica" font-size="14" font-weight="400" font-style="normal" 
 >E</text>
</g>

<g fill="#212121" fill-opacity="1" stroke="#212121" stroke-opacity="1" stroke-width="1" stroke-linecap="square" stroke-linejoin="bevel" transform="matrix(0,-0.749162,0.75,0,14.25,237.486)"
font-family="Helvetica" font-size="11" font-weight="400" font-style="normal" 
>
<text fill="#212121" fill-opacity="1" stroke="none" xml:space="preserve" x="0" y="0" font-family="Helvetica" font-size="11" font-weight="400" font-style="normal" 
 >b</text>
</g>

<g fill="#212121" fill-opacity="1" stroke="#212121" stroke-opacity="1" stroke-width="1" stroke-linecap="square" stroke-linejoin="bevel" transform="matrix(0,-0.749162,0.75,0,9,232.991)"
font-family="Helvetica" font-size="14" font-weight="400" font-style="normal" 
>
<text fill="#212121" fill-opacity="1" stroke="none" xml:space="preserve" x="0" y="0" font-family="Helvetica" font-size="14" font-weight="400" font-style="normal" 
 >/N</text>
</g>

<g fill="#212121" fill-opacity="1" stroke="#212121" stroke-opacity="1" stroke-width="1" stroke-linecap="square" stroke-linejoin="bevel" transform="matrix(0,-0.749162,0.75,0,14.25,222.503)"
font-family="Helvetica" font-size="11" font-weight="400" font-style="normal" 
>
<text fill="#212121" fill-opacity="1" stroke="none" xml:space="preserve" x="0" y="0" font-family="Helvetica" font-size="11" font-weight="400" font-style="normal" 
 >o</text>
</g>

<g fill="#212121" fill-opacity="1" stroke="#212121" stroke-opacity="1" stroke-width="1" stroke-linecap="square" stroke-linejoin="bevel" transform="matrix(0,-0.749162,0.75,0,9,218.008)"
font-family="Helvetica" font-size="14" font-weight="400" font-style="normal" 
>
<text fill="#212121" fill-opacity="1" stroke="none" xml:space="preserve" x="0" y="0" font-family="Helvetica" font-size="14" font-weight="400" font-style="normal" 
 > [dB]</text>
</g>

<g fill="#212121" fill-opacity="1" stroke="#212121" stroke-opacity="1" stroke-width="0.666667" stroke-linecap="square" stroke-linejoin="round" transform="matrix(0.75,0,0,0.749162,-52.5,-17.2291)"
font-family="Helvetica" font-size="14" font-weight="400" font-style="normal" 
>
<polyline fill="none" vector-effect="none" points="116,584 116,49.0001 " />
<polyline fill="none" vector-effect="none" points="806,584 806,49.0001 " />
<polyline fill="none" vector-effect="none" points="116,507.474 122.9,507.474 " />
<polyline fill="none" vector-effect="none" points="799.1,507.474 806,507.474 " />
<polyline fill="none" vector-effect="none" points="116,427.503 122.9,427.503 " />
<polyline fill="none" vector-effect="none" points="799.1,427.503 806,427.503 " />
<polyline fill="none" vector-effect="none" points="116,347.532 122.9,347.532 " />
<polyline fill="none" vector-effect="none" points="799.1,347.532 806,347.532 " />
<polyline fill="none" vector-effect="none" points="116,267.561 122.9,267.561 " />
<polyline fill="none" vector-effect="none" points="799.1,267.561 806,267.561 " />
<polyline fill="none" vector-effect="none" points="116,187.59 122.9,187.59 " />
<polyline fill="none" vector-effect="none" points="799.1,187.59 806,187.59 " />
<polyline fill="none" vector-effect="none" points="116,107.619 122.9,107.619 " />
<polyline fill="none" vector-effect="none" points="799.1,107.619 806,107.619 " />
</g>

<g fill="#212121" fill-opacity="1" stroke="#212121" stroke-opacity="1" stroke-width="1" stroke-linecap="square" stroke-linejoin="bevel" transform="matrix(0.75,0,0,0.749162,20,366.323)"
font-family="Helvetica" font-size="13" font-weight="400" font-style="normal" 
>
<text fill="#212121" fill-opacity="1" stroke="none" xml:space="preserve" x="0" y="0" font-family="Helvetica" font-size="13" font-weight="400" font-style="normal" 
 >40</text>
</g>

<g fill="#212121" fill-opacity="1" stroke="#212121" stroke-opacity="1" stroke-width="1" stroke-linecap="square" stroke-linejoin="bevel" transform="matrix(0.75,0,0,0.749162,20,306.412)"
font-family="Helvetica" font-size="13" font-weight="400" font-style="normal" 
>
<text fill="#212121" fill-opacity="1" stroke="none" xml:space="preserve" x="0" y="0" font-family="Helvetica" font-size="13" font-weight="400" font-style="normal" 
 >42</text>
</g>

<g fill="#212121" fill-opacity="1" stroke="#212121" stroke-opacity="1" stroke-width="1" stroke-linecap="square" stroke-linejoin="bevel" transform="matrix(0.75,0,0,0.749162,20,246.5)"
font-family="Helvetica" font-size="13" font-weight="400" font-style="normal" 
>
<text fill="#212121" fill-opacity="1" stroke="none" xml:space="preserve" x="0" y="0" font-family="Helvetica" font-size="13" font-weight="400" font-style="normal" 
 >44</text>
</g>

<g fill="#212121" fill-opacity="1" stroke="#212121" stroke-opacity="1" stroke-width="1" stroke-linecap="square" stroke-linejoin="bevel" transform="matrix(0.75,0,0,0.749162,20,186.589)"
font-family="Helvetica" font-size="13" font-weight="400" font-style="normal" 
>
<text fill="#212121" fill-opacity="1" stroke="none" xml:space="preserve" x="0" y="0" font-family="Helvetica" font-size="13" font-weight="400" font-style="normal" 
 >46</text>
</g>

<g fill="#212121" fill-opacity="1" stroke="#212121" stroke-opacity="1" stroke-width="1" stroke-linecap="square" stroke-linejoin="bevel" transform="matrix(0.75,0,0,0.749162,20,126.678)"
font-family="Helvetica" font-size="13" font-weight="400" font-style="normal" 
>
<text fill="#212121" fill-opacity="1" stroke="none" xml:space="preserve" x="0" y="0" font-family="Helvetica" font-size="13" font-weight="400" font-style="normal" 
 >48</text>
</g>

<g fill="#212121" fill-opacity="1" stroke="#212121" stroke-opacity="1" stroke-width="1" stroke-linecap="square" stroke-linejoin="bevel" transform="matrix(0.75,0,0,0.749162,20,66.7664)"
font-family="Helvetica" font-size="13" font-weight="400" font-style="normal" 
>
<text fill="#212121" fill-opacity="1" stroke="none" xml:space="preserve" x="0" y="0" font-family="Helvetica" font-size="13" font-weight="400" font-style="normal" 
 >50</text>
</g>

<g fill="#212121" fill-opacity="1" stroke="#212121" stroke-opacity="1" stroke-width="1" stroke-linecap="square" stroke-linejoin="bevel" transform="matrix(0.75,0,0,0.749162,197.25,9.74078)"
font-family="Helvetica" font-size="14" font-weight="700" font-style="normal" 
>
<text fill="#212121" fill-opacity="1" stroke="none" xml:space="preserve" x="0" y="0" font-family="Helvetica" font-size="14" font-weight="700" font-style="normal" 
 >Received E</text>
</g>

<g fill="#212121" fill-opacity="1" stroke="#212121" stroke-opacity="1" stroke-width="1" stroke-linecap="square" stroke-linejoin="bevel" transform="matrix(0.75,0,0,0.749162,258.75,14.9849)"
font-family="Helvetica" font-size="11" font-weight="700" font-style="normal" 
>
<text fill="#212121" fill-opacity="1" stroke="none" xml:space="preserve" x="0" y="0" font-family="Helvetica" font-size="11" font-weight="700" font-style="normal" 
 >b</text>
</g>

<g fill="#212121" fill-opacity="1" stroke="#212121" stroke-opacity="1" stroke-width="1" stroke-linecap="square" stroke-linejoin="bevel" transform="matrix(0.75,0,0,0.749162,263.25,9.74078)"
font-family="Helvetica" font-size="14" font-weight="700" font-style="normal" 
>
<text fill="#212121" fill-opacity="1" stroke="none" xml:space="preserve" x="0" y="0" font-family="Helvetica" font-size="14" font-weight="700" font-style="normal" 
 >/N</text>
</g>

<g fill="#212121" fill-opacity="1" stroke="#212121" stroke-opacity="1" stroke-width="1" stroke-linecap="square" stroke-linejoin="bevel" transform="matrix(0.75,0,0,0.749162,275.25,14.9849)"
font-family="Helvetica" font-size="11" font-weight="700" font-style="normal" 
>
<text fill="#212121" fill-opacity="1" stroke="none" xml:space="preserve" x="0" y="0" font-family="Helvetica" font-size="11" font-weight="700" font-style="normal" 
 >o</text>
</g>

<g fill="#212121" fill-opacity="1" stroke="#212121" stroke-opacity="1" stroke-width="1" stroke-linecap="square" stroke-linejoin="bevel" transform="matrix(0.75,0,0,0.749162,279.75,9.74078)"
font-family="Helvetica" font-size="14" font-weight="700" font-style="normal" 
>
<text fill="#212121" fill-opacity="1" stroke="none" xml:space="preserve" x="0" y="0" font-family="Helvetica" font-size="14" font-weight="700" font-style="normal" 
 > from both satellites</text>
</g>

<g fill="none" stroke="#1171be" stroke-opacity="1" stroke-width="2" stroke-linecap="butt" stroke-linejoin="round" transform="matrix(0.75,0,0,0.749162,-52.5,-17.2291)"
font-family="Helvetica" font-size="14" font-weight="700" font-style="normal" 
>
<polyline fill="none" vector-effect="none" points="116,534.069 116.19,531.315 116.379,528.796 116.569,526.526 116.759,524.513 116.949,522.77 117.138,521.303 117.328,520.12 117.518,519.229 117.707,518.632 117.897,518.333 118.087,518.335 118.277,518.637 118.466,519.237 118.656,520.133 118.846,521.32 119.035,522.791 119.225,524.54 " />
<polyline fill="none" vector-effect="none" points="223.569,561.754 223.759,553.332 223.949,544.73 224.139,535.941 224.328,526.962 224.518,517.786 224.708,508.41 224.897,498.829 225.087,489.039 225.277,479.036 225.467,468.818 225.656,458.383 225.846,447.731 226.036,436.863 226.225,425.784 226.415,414.498 226.605,403.017 226.795,391.354 226.984,379.528 227.174,367.564 227.364,355.496 227.554,343.365 227.743,331.225 227.933,319.14 228.123,307.19 228.312,295.469 228.502,284.091 228.692,273.185 228.881,262.896 229.071,253.385 229.261,244.823 229.451,237.383 229.64,231.236 229.83,226.532 230.02,223.4 230.21,221.925 230.399,222.153 230.589,224.076 230.779,227.638 230.968,232.741 231.158,239.25 231.348,247.007 231.538,255.841 231.727,265.577 231.917,276.048 232.107,287.096 232.296,298.58 232.486,310.375 232.676,322.373 232.866,334.483 233.055,346.63 233.245,358.753 233.435,370.801 233.624,382.734 233.814,394.523 234.004,406.143 234.194,417.577 234.383,428.813 234.573,439.84 234.763,450.655 234.952,461.253 235.142,471.634 235.332,481.798 235.522,491.748 235.711,501.486 235.901,511.016 236.091,520.342 236.28,529.469 236.47,538.401 236.66,547.144 236.85,555.702 " />
<polyline fill="none" vector-effect="none" points="336.261,580.88 336.451,572.604 336.641,564.131 336.83,555.452 337.02,546.558 337.21,537.441 337.4,528.09 337.589,518.495 337.779,508.644 337.969,498.527 338.158,488.13 338.348,477.441 338.538,466.447 338.728,455.133 338.917,443.485 339.107,431.487 339.297,419.124 339.486,406.381 339.676,393.242 339.866,379.692 340.056,365.717 340.245,351.305 340.435,336.448 340.625,321.14 340.814,305.383 341.004,289.187 341.194,272.575 341.384,255.587 341.573,238.286 341.763,220.764 341.953,203.153 342.142,185.635 342.332,168.452 342.522,151.917 342.712,136.417 342.901,122.411 343.091,110.409 343.281,100.934 343.47,94.4611 343.66,91.3529 343.85,91.7942 344.04,95.758 344.229,103.011 344.419,113.156 344.609,125.699 344.798,140.116 344.988,155.907 345.178,172.63 345.368,189.915 345.557,207.47 345.747,225.067 345.937,242.537 346.126,259.761 346.316,276.653 346.506,293.157 346.696,309.238 346.885,324.877 347.075,340.066 347.265,354.805 347.454,369.1 347.644,382.961 347.834,396.4 348.024,409.433 348.213,422.073 348.403,434.336 348.593,446.239 348.782,457.796 348.972,469.022 349.162,479.932 349.352,490.54 349.541,500.859 349.731,510.902 349.921,520.681 350.111,530.207 350.3,539.493 350.49,548.547 350.68,557.379 350.869,565.999 351.059,574.416 351.249,582.638 " />
<polyline fill="none" vector-effect="none" points="450.85,583.984 451.04,576.234 451.23,568.331 451.419,560.27 451.609,552.049 451.799,543.663 451.988,535.107 452.178,526.38 452.368,517.477 452.558,508.396 452.747,499.135 452.937,489.691 453.127,480.063 453.316,470.253 453.506,460.261 453.696,450.091 453.886,439.747 454.075,429.236 454.265,418.57 454.455,407.762 454.645,396.831 454.834,385.798 455.024,374.695 455.214,363.556 455.403,352.426 455.593,341.359 455.783,330.419 455.973,319.681 456.162,309.233 456.352,299.174 456.542,289.615 456.731,280.68 456.921,272.497 457.111,265.203 457.3,258.93 457.49,253.803 457.68,249.934 457.87,247.412 458.059,246.297 458.249,246.616 458.439,248.362 458.629,251.493 458.818,255.933 459.008,261.584 459.198,268.326 459.387,276.031 459.577,284.563 459.767,293.789 459.957,303.583 460.146,313.826 460.336,324.412 460.526,335.247 460.715,346.25 460.905,357.348 461.095,368.485 461.285,379.61 461.474,390.682 461.664,401.67 461.854,412.545 462.043,423.288 462.233,433.883 462.423,444.317 462.613,454.581 462.802,464.669 462.992,474.577 463.182,484.302 463.371,493.844 463.561,503.203 463.751,512.381 463.941,521.379 464.13,530.199 464.32,538.846 464.51,547.322 464.699,555.631 464.889,563.777 465.079,571.763 465.269,579.594 " />
<polyline fill="none" vector-effect="none" points="565.439,584 565.629,576.142 565.819,568.121 566.008,559.931 566.198,551.567 566.388,543.024 566.577,534.298 566.767,525.383 566.957,516.273 567.147,506.965 567.336,497.453 567.526,487.733 567.716,477.802 567.905,467.657 568.095,457.295 568.285,446.716 568.475,435.921 568.664,424.912 568.854,413.695 569.044,402.278 569.233,390.674 569.423,378.9 569.613,366.979 569.803,354.941 569.992,342.825 570.182,330.679 570.372,318.564 570.561,306.555 570.751,294.742 570.941,283.229 571.131,272.141 571.32,261.618 571.51,251.817 571.7,242.904 571.889,235.053 572.079,228.437 572.269,223.216 572.459,219.525 572.648,217.468 572.838,217.104 573.028,218.443 573.218,221.447 573.407,226.03 573.597,232.07 573.787,239.416 573.976,247.899 574.166,257.345 574.356,267.583 574.545,278.452 574.735,289.804 574.925,301.507 575.115,313.45 575.304,325.535 575.494,337.681 575.684,349.822 575.874,361.905 576.063,373.886 576.253,385.732 576.443,397.417 576.632,408.922 576.822,420.232 577.012,431.336 577.202,442.23 577.391,452.907 577.581,463.368 577.771,473.612 577.96,483.64 578.15,493.456 578.34,503.063 578.53,512.464 578.719,521.664 578.909,530.668 579.099,539.48 579.288,548.107 579.478,556.552 579.668,564.822 579.858,572.921 580.047,580.854 " />
<polyline fill="none" vector-effect="none" points="679.459,579.147 679.649,570.756 679.838,562.16 680.028,553.349 680.218,544.312 680.407,535.04 680.597,525.521 680.787,515.743 680.977,505.694 681.166,495.36 681.356,484.726 681.546,473.778 681.736,462.5 681.925,450.874 682.115,438.881 682.305,426.502 682.494,413.718 682.684,400.507 682.874,386.846 683.063,372.714 683.253,358.088 683.443,342.945 683.633,327.265 683.822,311.028 684.012,294.221 684.202,276.837 684.391,258.878 684.581,240.363 684.771,221.332 684.961,201.858 685.15,182.056 685.34,162.102 685.53,142.25 685.72,122.852 685.909,104.376 686.099,87.4145 686.289,72.6675 686.478,60.893 686.668,52.8151 686.858,49.0001 687.048,49.7368 687.237,54.9688 687.427,64.3075 687.617,77.1216 687.807,92.6642 687.996,110.187 688.186,129.022 688.375,148.616 688.565,168.539 688.755,188.474 688.945,208.192 689.134,227.539 689.324,246.417 689.514,264.762 689.704,282.544 689.893,299.748 690.083,316.376 690.273,332.438 690.462,347.95 690.652,362.93 690.842,377.401 691.032,391.385 691.221,404.904 691.411,417.982 691.601,430.639 691.791,442.897 691.98,454.776 692.17,466.294 692.36,477.47 692.549,488.32 692.739,498.861 692.929,509.108 693.119,519.074 693.308,528.773 693.498,538.217 693.688,547.418 693.877,556.386 694.067,565.133 694.257,573.667 " />
<polyline fill="none" vector-effect="none" points="794.238,544.049 794.427,536.001 794.617,527.84 794.807,519.571 794.996,511.197 795.186,502.724 795.376,494.16 795.566,485.513 795.755,476.794 795.945,468.016 796.135,459.195 796.325,450.349 796.514,441.5 796.704,432.673 796.894,423.897 797.083,415.207 797.273,406.641 797.463,398.24 797.652,390.055 797.842,382.137 798.032,374.545 798.222,367.339 798.411,360.586 798.601,354.353 798.791,348.708 798.98,343.717 799.17,339.446 799.36,335.95 799.55,333.282 799.739,331.479 799.929,330.571 800.119,330.571 800.309,331.478 800.498,333.28 800.688,335.947 800.878,339.441 801.067,343.711 801.257,348.698 801.447,354.34 801.637,360.569 801.826,367.318 802.016,374.518 802.206,382.104 802.395,390.015 802.585,398.193 802.775,406.586 802.964,415.144 803.154,423.826 803.344,432.592 803.534,441.41 803.723,450.249 803.913,459.085 804.103,467.897 804.293,476.664 804.482,485.373 804.672,494.01 804.862,502.564 805.051,511.026 805.241,519.389 805.431,527.648 805.621,535.798 805.81,543.836 806,551.759 " />
</g>

<g fill="none" stroke="#dd5400" stroke-opacity="1" stroke-dasharray="8,8" stroke-dashoffset="0" stroke-width="2" stroke-linecap="butt" stroke-linejoin="round" transform="matrix(0.75,0,0,0.749162,-52.5,-17.2291)"
font-family="Helvetica" font-size="14" font-weight="700" font-style="normal" 
>
<polyline fill="none" vector-effect="none" points="116,583.383 116.19,581.758 116.379,580.321 116.569,579.076 116.759,578.028 116.949,577.18 117.138,576.536 117.328,576.098 117.518,575.867 117.707,575.846 117.897,576.033 118.087,576.428 118.277,577.03 118.466,577.837 118.656,578.845 118.846,580.052 119.035,581.452 119.225,583.042 " />
<polyline fill="none" vector-effect="none" points="223.569,579.535 223.759,572.177 223.949,564.712 224.139,557.141 224.328,549.464 224.518,541.685 224.708,533.806 224.897,525.83 225.087,517.764 225.277,509.612 225.467,501.382 225.656,493.083 225.846,484.726 226.036,476.323 226.225,467.89 226.415,459.444 226.605,451.007 226.795,442.6 226.984,434.253 227.174,425.995 227.364,417.862 227.554,409.893 227.743,402.13 227.933,394.62 228.123,387.416 228.312,380.57 228.502,374.141 228.692,368.187 228.881,362.767 229.071,357.941 229.261,353.765 229.451,350.289 229.64,347.559 229.83,345.613 230.02,344.476 230.21,344.166 230.399,344.688 230.589,346.033 230.779,348.182 230.968,351.107 231.158,354.767 231.348,359.116 231.538,364.101 231.727,369.666 231.917,375.75 232.107,382.296 232.296,389.243 232.486,396.537 232.676,404.122 232.866,411.949 233.055,419.971 233.245,428.148 233.435,436.44 233.624,444.813 233.814,453.239 234.004,461.69 234.194,470.144 234.383,478.58 234.573,486.982 234.763,495.336 234.952,503.629 235.142,511.85 235.332,519.991 235.522,528.045 235.711,536.007 235.901,543.872 236.091,551.636 236.28,559.296 236.47,566.851 236.66,574.3 236.85,581.641 " />
<polyline fill="none" vector-effect="none" points="336.261,581.055 336.451,572.761 336.641,564.267 336.83,555.565 337.02,546.645 337.21,537.497 337.4,528.112 337.589,518.478 337.779,508.583 337.969,498.415 338.158,487.961 338.348,477.206 338.538,466.138 338.728,454.739 338.917,442.993 339.107,430.885 339.297,418.396 339.486,405.507 339.676,392.201 339.866,378.459 340.056,364.263 340.245,349.597 340.435,334.443 340.625,318.793 340.814,302.637 341.004,285.978 341.194,268.826 341.384,251.209 341.573,233.175 341.763,214.802 341.953,196.208 342.142,177.56 342.332,159.096 342.522,141.13 342.712,124.069 342.901,108.415 343.091,94.7475 343.281,83.688 343.47,75.83 343.66,71.6518 343.85,71.4286 344.04,75.1754 344.229,82.6441 344.419,93.3747 344.609,106.782 344.798,122.243 344.988,139.172 345.178,157.058 345.368,175.482 345.557,194.119 345.747,212.727 345.937,231.129 346.126,249.202 346.316,266.866 346.506,284.069 346.696,300.781 346.885,316.991 347.075,332.695 347.265,347.9 347.454,362.618 347.644,376.863 347.834,390.652 348.024,404.004 348.213,416.935 348.403,429.466 348.593,441.613 348.782,453.396 348.972,464.83 349.162,475.932 349.352,486.718 349.541,497.203 349.731,507.4 349.921,517.322 350.111,526.983 350.3,536.393 350.49,545.564 350.68,554.507 350.869,563.231 351.059,571.745 351.249,580.058 " />
<polyline fill="none" vector-effect="none" points="450.85,570.828 451.04,562.356 451.23,553.678 451.419,544.785 451.609,535.668 451.799,526.317 451.988,516.721 452.178,506.871 452.368,496.753 452.558,486.355 452.747,475.664 452.937,464.668 453.127,453.351 453.316,441.699 453.506,429.696 453.696,417.328 453.886,404.577 454.075,391.429 454.265,377.868 454.455,363.88 454.645,349.453 454.834,334.577 455.024,319.246 455.214,303.462 455.403,287.234 455.593,270.584 455.783,253.55 455.973,236.194 456.162,218.607 456.352,200.919 456.542,183.312 456.731,166.026 456.921,149.373 457.111,133.744 457.3,119.598 457.49,107.452 457.68,97.8351 457.87,91.2335 458.059,88.0184 458.249,88.3825 458.439,92.3036 458.629,99.5486 458.818,109.717 459.008,122.31 459.198,136.794 459.387,152.664 459.577,169.472 459.767,186.844 459.957,204.483 460.146,222.162 460.336,239.709 460.526,257.005 460.715,273.963 460.905,290.529 461.095,306.667 461.285,322.358 461.474,337.594 461.664,352.377 461.854,366.713 462.043,380.611 462.233,394.086 462.423,407.15 462.613,419.82 462.802,432.112 462.992,444.04 463.182,455.622 463.371,466.871 463.561,477.803 463.751,488.431 463.941,498.769 464.13,508.83 464.32,518.627 464.51,528.17 464.699,537.471 464.889,546.54 465.079,555.387 465.269,564.021 " />
<polyline fill="none" vector-effect="none" points="565.439,570.915 565.629,562.408 565.819,553.69 566.008,544.755 566.198,535.59 566.388,526.187 566.577,516.533 566.767,506.618 566.957,496.428 567.147,485.95 567.336,475.17 567.526,464.074 567.716,452.645 567.905,440.868 568.095,428.724 568.285,416.197 568.475,403.267 568.664,389.916 568.854,376.125 569.044,361.875 569.233,347.149 569.423,331.931 569.613,316.209 569.803,299.974 569.992,283.229 570.182,265.982 570.372,248.261 570.561,230.114 570.751,211.618 570.941,192.891 571.131,174.106 571.32,155.499 571.51,137.393 571.7,120.202 571.889,104.438 572.079,90.6944 572.269,79.6064 572.459,71.7796 572.648,67.6989 572.838,67.6374 573.028,71.5996 573.218,79.3197 573.407,90.3186 573.597,103.992 573.787,119.706 573.976,136.864 574.166,154.952 574.356,173.551 574.545,192.338 574.735,211.072 574.925,229.58 575.115,247.742 575.304,265.48 575.494,282.745 575.684,299.509 575.874,315.762 576.063,331.503 576.253,346.74 576.443,361.484 576.632,375.751 576.822,389.559 577.012,402.926 577.202,415.872 577.391,428.414 577.581,440.572 577.771,452.363 577.96,463.806 578.15,474.915 578.34,485.707 578.53,496.197 578.719,506.398 578.909,516.325 579.099,525.99 579.288,535.403 579.478,544.578 579.668,553.523 579.858,562.25 580.047,570.767 " />
<polyline fill="none" vector-effect="none" points="679.459,583.674 679.649,575.548 679.838,567.236 680.028,558.731 680.218,550.025 680.407,541.111 680.597,531.979 680.787,522.622 680.977,513.03 681.166,503.194 681.356,493.104 681.546,482.751 681.736,472.124 681.925,461.214 682.115,450.009 682.305,438.501 682.494,426.679 682.684,414.535 682.874,402.062 683.063,389.252 683.253,376.102 683.443,362.612 683.633,348.787 683.822,334.635 684.012,320.176 684.202,305.436 684.391,290.458 684.581,275.301 684.771,260.043 684.961,244.792 685.15,229.685 685.34,214.898 685.53,200.647 685.72,187.191 685.909,174.831 686.099,163.895 686.289,154.728 686.478,147.659 686.668,142.973 686.858,140.872 687.048,141.453 687.237,144.689 687.427,150.434 687.617,158.447 687.807,168.419 687.996,180.012 688.186,192.885 688.375,206.718 688.565,221.23 688.755,236.179 688.945,251.367 689.134,266.636 689.324,281.862 689.514,296.951 689.704,311.832 689.893,326.455 690.083,340.784 690.273,354.797 690.462,368.478 690.652,381.821 690.842,394.824 691.032,407.488 691.221,419.819 691.411,431.823 691.601,443.508 691.791,454.884 691.98,465.96 692.17,476.746 692.36,487.254 692.549,497.492 692.739,507.471 692.929,517.2 693.119,526.69 693.308,535.948 693.498,544.985 693.688,553.809 693.877,562.427 694.067,570.848 694.257,579.078 " />
<polyline fill="none" vector-effect="none" points="794.238,581.729 794.427,575.23 794.617,568.693 794.807,562.126 794.996,555.536 795.186,548.929 795.376,542.316 795.566,535.706 795.755,529.11 795.945,522.542 796.135,516.014 796.325,509.543 796.514,503.145 796.704,496.839 796.894,490.645 797.083,484.585 797.273,478.681 797.463,472.958 797.652,467.443 797.842,462.161 798.032,457.142 798.222,452.414 798.411,448.006 798.601,443.947 798.791,440.264 798.98,436.984 799.17,434.133 799.36,431.732 799.55,429.803 799.739,428.36 799.929,427.417 800.119,426.981 800.309,427.057 800.498,427.644 800.688,428.736 800.878,430.324 801.067,432.395 801.257,434.929 801.447,437.908 801.637,441.307 801.826,445.101 802.016,449.262 802.206,453.762 802.395,458.573 802.585,463.666 802.775,469.011 802.964,474.582 803.154,480.351 803.344,486.293 803.534,492.384 803.723,498.602 803.913,504.924 804.103,511.332 804.293,517.808 804.482,524.335 804.672,530.898 804.862,537.484 805.051,544.081 805.241,550.677 805.431,557.264 805.621,563.832 805.81,570.374 806,576.883 " />
</g>

<g fill="#ffffff" fill-opacity="1" stroke="none" transform="matrix(7.5e-05,0,0,7.49162e-05,-52.5,-17.2291)"
font-family="Helvetica" font-size="14" font-weight="700" font-style="normal" 
>
<path vector-effect="none" fill-rule="evenodd" d="M7.08e+06,600000 L7.08e+06,920000 L7.95e+06,920000 L7.95e+06,600000 L7.08e+06,600000"/>
</g>

<g fill="#1171be" fill-opacity="1" stroke="#1171be" stroke-opacity="1" stroke-width="2" stroke-linecap="butt" stroke-linejoin="round" transform="matrix(0.75,0,0,0.749162,-52.5,-17.2291)"
font-family="Helvetica" font-size="14" font-weight="700" font-style="normal" 
>
<polyline fill="none" vector-effect="none" points="712,68.8615 752,68.8615 " />
</g>

<g fill="#dd5400" fill-opacity="1" stroke="#dd5400" stroke-opacity="1" stroke-dasharray="8,8" stroke-dashoffset="0" stroke-width="2" stroke-linecap="butt" stroke-linejoin="round" transform="matrix(0.75,0,0,0.749162,-52.5,-17.2291)"
font-family="Helvetica" font-size="14" font-weight="700" font-style="normal" 
>
<polyline fill="none" vector-effect="none" points="712,83.1385 752,83.1385 " />
</g>

<g fill="#212121" fill-opacity="1" stroke="#212121" stroke-opacity="1" stroke-width="1" stroke-linecap="square" stroke-linejoin="bevel" transform="matrix(0.75,0,0,0.749162,513.75,37.3561)"
font-family="Helvetica" font-size="12" font-weight="400" font-style="normal" 
>
<text fill="#212121" fill-opacity="1" stroke="none" xml:space="preserve" x="0" y="0" font-family="Helvetica" font-size="12" font-weight="400" font-style="normal" 
 >Path 1</text>
</g>

<g fill="#212121" fill-opacity="1" stroke="#212121" stroke-opacity="1" stroke-width="1" stroke-linecap="square" stroke-linejoin="bevel" transform="matrix(0.75,0,0,0.749162,513.75,48.0518)"
font-family="Helvetica" font-size="12" font-weight="400" font-style="normal" 
>
<text fill="#212121" fill-opacity="1" stroke="none" xml:space="preserve" x="0" y="0" font-family="Helvetica" font-size="12" font-weight="400" font-style="normal" 
 >Path 2</text>
</g>

<g fill="none" stroke="#212121" stroke-opacity="1" stroke-width="0.666667" stroke-linecap="butt" stroke-linejoin="miter" stroke-miterlimit="2" transform="matrix(0.75,0,0,0.749162,-52.5,-17.2291)"
font-family="Helvetica" font-size="12" font-weight="400" font-style="normal" 
>
<path vector-effect="none" fill-rule="evenodd" d="M708,92 L708,60 L795,60 L795,92 L708,92"/>
</g>
</g>
</svg>
